<svg width="128" height="127" viewBox="0 0 128 127" fill="none" xmlns="http://www.w3.org/2000/svg">
<path d="M94.2108 126.956C90.8046 123.556 87.3984 120.153 83.9922 116.749C82.4693 115.221 82.4693 114.309 83.9725 112.798C85.0998 111.659 86.2205 110.493 87.3808 109.4C87.9181 108.89 87.9379 108.521 87.3808 107.988C84.8625 105.505 82.3616 103.004 79.8784 100.484C79.68 100.279 79.4415 100.118 79.1778 100.009C78.9141 99.9002 78.6308 99.8468 78.3456 99.852C73.5791 99.7072 68.8159 99.5228 64.0527 99.3845C61.7601 99.3326 59.5786 98.3873 57.9743 96.7505C52.9507 91.7657 47.9491 86.7612 42.9695 81.7369C40.6192 79.363 41.3213 76.2121 44.4462 75.0301C46.246 74.3486 48.0722 73.7823 49.9313 73.1534C49.8621 72.6661 49.4303 72.439 49.1237 72.1328C44.9473 67.9349 40.7312 63.7732 36.5779 59.549C33.0277 55.9273 33.9408 50.2873 38.4996 48.5489C40.1247 47.9299 40.8697 47.1627 41.4663 45.5461C42.7848 41.9244 47.1031 40.479 50.6104 42.2998C51.4245 42.7245 51.7146 42.629 52.1992 41.8619C52.7002 41.0818 53.3616 40.4171 54.1394 39.9117C54.9172 39.4064 55.7936 39.0719 56.7107 38.9306C57.6277 38.7892 58.5643 38.8442 59.4584 39.0919C60.3526 39.3395 61.1838 39.7742 61.897 40.3671C62.6881 41.0256 63.0474 41.1869 63.7067 40.1465C65.6548 37.0549 69.762 36.3239 72.9364 38.4015C73.5781 38.8441 74.1734 39.3504 74.7131 39.9127C82.2946 47.5019 89.8762 55.1239 97.5104 62.6669C98.7296 63.8282 99.498 65.3829 99.6795 67.0558C100.085 70.1112 100.649 73.1436 101.103 76.1924C101.183 76.7602 101.454 77.2839 101.871 77.6773C104.469 80.2586 107.073 82.83 109.628 85.4541C110.287 86.1126 110.706 86.1126 111.309 85.4376C111.995 84.6711 112.722 83.9424 113.488 83.2547C114.572 82.267 115.581 82.2308 116.639 83.2745C119.975 86.5669 123.29 89.8835 126.584 93.2243C127.553 94.212 127.573 95.4566 126.749 96.3027C125.925 97.1489 124.623 97.1357 123.584 96.1085C121.069 93.6227 118.551 91.1369 116.095 88.5918C115.357 87.8247 114.915 87.7687 114.117 88.5589C105.747 97.0183 97.3292 105.455 88.8642 113.868C88.1258 114.606 88.1588 115.04 88.884 115.745C91.3068 118.092 93.6703 120.499 96.0502 122.889C97.6687 124.513 97.6984 125.303 96.1821 126.956H94.2108ZM51.8893 77.3908C50.0829 77.3678 48.6655 78.0954 47.1723 78.5202C46.1834 78.8 46.3449 79.1227 46.9382 79.7153C51.5773 84.3248 56.202 88.9485 60.8125 93.5865C61.2309 94.0409 61.7353 94.4081 62.2965 94.6669C62.8578 94.9257 63.4647 95.071 64.0824 95.0944C69.0533 95.2459 74.0209 95.4237 78.9917 95.5488C79.6463 95.5408 80.2953 95.6697 80.897 95.9271C81.4987 96.1845 82.0399 96.5648 82.4858 97.0436C85.0273 99.6775 87.6709 102.213 90.219 104.84C90.9112 105.555 91.3068 105.499 91.9792 104.81C96.8358 99.8981 101.72 95.011 106.631 90.1491C107.291 89.4906 107.373 89.0791 106.658 88.3844C103.889 85.6878 101.189 82.9189 98.44 80.2026C97.6829 79.5014 97.1915 78.5605 97.049 77.539C96.6106 74.4474 96.1095 71.3656 95.5854 68.2872C95.4437 67.4608 95.4568 66.5981 94.758 65.9034C86.9194 58.0937 79.0928 50.273 71.2783 42.4413C70.1411 41.3054 68.4303 41.1935 67.504 42.1121C66.5778 43.0307 66.6008 44.8514 67.7117 46.0005C69.0863 47.4195 70.5004 48.7991 71.8914 50.1984C72.4122 50.7219 72.9561 51.2322 73.4308 51.7985C74.2648 52.7863 74.245 53.9979 73.4308 54.8012C72.6166 55.6046 71.453 55.6013 70.4443 54.7288C70.1641 54.4852 69.9103 54.2119 69.6499 53.9518C66.481 50.7822 63.3111 47.6127 60.14 44.4432C59.7751 44.0536 59.3632 43.7107 58.9138 43.4225C58.4521 43.139 57.9045 43.0288 57.3689 43.1114C56.8333 43.194 56.3445 43.4642 55.9899 43.8736C55.6085 44.2294 55.3637 44.7073 55.298 45.2245C55.2324 45.7417 55.3501 46.2655 55.6307 46.7051C55.9132 47.1584 56.2558 47.5715 56.6492 47.9332C59.9851 51.2882 63.3375 54.6235 66.67 57.9818C67.8106 59.1308 67.9062 60.3161 66.9997 61.238C66.0932 62.1599 64.8142 62.0381 63.7034 61.0042C63.4331 60.7507 63.1792 60.4807 62.9188 60.2206C58.6402 55.8921 54.355 51.5626 50.0632 47.2319C49.7315 46.8677 49.3649 46.5369 48.9688 46.2441C48.0293 45.6153 47.0404 45.5527 46.0845 46.2112C45.1285 46.8697 44.9934 47.8048 45.178 48.8452C45.3032 49.5333 45.8175 49.9778 46.2823 50.442C50.7873 54.9527 55.2922 59.4634 59.7972 63.974C60.1293 64.2776 60.4358 64.6079 60.7136 64.9618C61.0177 65.3328 61.1763 65.8015 61.16 66.2807C61.1436 66.7599 60.9533 67.2167 60.6246 67.5661C60.2952 67.9404 59.8424 68.1844 59.3483 68.2539C58.8542 68.3234 58.3516 68.2137 57.9315 67.9448C57.5598 67.6885 57.2182 67.3915 56.9129 67.0591C52.4299 62.5813 47.9502 58.1025 43.4738 53.6225C43.1367 53.2663 42.773 52.9361 42.386 52.6348C42.038 52.3717 41.6199 52.217 41.1843 52.1901C40.7486 52.1631 40.3147 52.2651 39.9369 52.4834C39.5663 52.6646 39.2536 52.9455 39.0341 53.2945C38.8146 53.6435 38.6968 54.0467 38.6941 54.4588C38.6249 55.5322 39.2182 56.217 39.9039 56.9051C47.8744 64.8685 55.8394 72.8407 63.7989 80.8216C64.1949 81.1797 64.5448 81.5856 64.8406 82.0299C65.0995 82.4111 65.2142 82.8718 65.1641 83.3297C65.114 83.7876 64.9023 84.2127 64.567 84.5289C64.2537 84.8943 63.8141 85.1284 63.3358 85.1845C62.8574 85.2407 62.3755 85.1147 61.9859 84.8318C61.6117 84.5775 61.2659 84.2839 60.9542 83.956C59.405 82.425 57.8721 80.8743 56.3229 79.3466C55.145 78.1593 53.5613 77.4607 51.8893 77.3908V77.3908Z" fill="white"/>
<path d="M93.7162 0.52498C95.2886 1.9144 95.3644 2.99104 93.8943 4.45948C91.4319 6.94199 88.9695 9.4245 86.4709 11.8708C85.8512 12.4766 85.7161 12.8388 86.4149 13.5335C94.9326 22.0061 103.424 30.5018 111.889 39.0205C112.611 39.7448 113.029 39.6361 113.676 38.9744C116.118 36.4754 118.62 34.0357 121.072 31.54C121.784 30.8222 122.569 30.3613 123.607 30.6774C125.11 31.135 125.559 32.9162 124.415 34.1575C123.136 35.5469 121.778 36.854 120.426 38.1941C118.536 40.0883 116.646 41.9793 114.753 43.867C113.277 45.3321 112.265 45.3288 110.755 43.8505C109.611 42.7278 108.471 41.5985 107.356 40.4428C106.888 39.9588 106.529 39.916 106.038 40.4198C103.526 42.9681 100.999 45.5022 98.4564 48.0221C98.1258 48.3842 97.9313 48.8496 97.9059 49.339C97.662 51.1828 97.7872 53.0365 97.718 54.8868C97.7193 55.3793 97.6841 55.8713 97.6125 56.3586C97.3818 57.5834 96.4687 58.334 95.3875 58.232C94.8439 58.1931 94.3369 57.9439 93.9744 57.5375C93.6118 57.1311 93.4223 56.5995 93.446 56.0557C93.4756 53.2176 93.591 50.3828 93.6965 47.5479C93.7295 46.7512 94.2601 46.2079 94.7909 45.6778C97.4708 43.0043 100.124 40.3012 102.831 37.6607C103.536 36.9693 103.49 36.5379 102.831 35.863C97.8927 30.9704 92.979 26.0525 88.0894 21.1095C87.4302 20.451 87.0577 20.4707 86.4182 21.1259C83.6889 23.9245 80.8968 26.6573 78.151 29.4427C77.4758 30.1631 76.5722 30.6283 75.5931 30.7597C72.2209 31.2469 68.8653 31.8462 65.4964 32.3631C64.8844 32.4479 64.3267 32.7593 63.934 33.2356C62.8758 34.4406 61.7979 35.6292 60.7167 36.8145C59.6355 37.9998 58.4917 38.1677 57.4897 37.2886C56.4876 36.4095 56.5008 35.2539 57.5721 34.0357C58.9302 32.4915 60.3179 30.9737 61.6793 29.4262C62.2291 28.8088 62.9894 28.4179 63.812 28.3298C67.3028 27.7965 70.787 27.2071 74.2778 26.6836C74.8456 26.6049 75.3691 26.3341 75.7612 25.9165C78.3422 23.3154 80.9166 20.7144 83.5339 18.1561C84.1503 17.5536 84.1932 17.1684 83.5339 16.5724C82.7087 15.8289 81.9304 15.035 81.2034 14.1953C80.3332 13.1878 80.3035 12.121 81.2232 11.1991C84.7931 7.61695 88.2641 3.93268 91.9989 0.518398L93.7162 0.52498Z" fill="white"/>
<path d="M34.4979 126.956C32.8827 125.658 32.8102 124.549 34.2836 123.064C36.746 120.581 39.205 118.096 41.7037 115.653C42.3629 115.014 42.4915 114.632 41.7531 113.898C33.2947 105.489 24.8638 97.0501 16.4604 88.5819C15.6132 87.7292 15.1418 87.8642 14.4035 88.6379C12.0301 91.0908 9.59085 93.4811 7.18123 95.8813C6.61427 96.4476 6.02092 96.9316 5.15069 96.8691C4.75727 96.8652 4.37363 96.7462 4.04727 96.5268C3.72091 96.3073 3.46616 95.997 3.31461 95.6344C3.13506 95.2816 3.07034 94.8816 3.12943 94.4902C3.18853 94.0989 3.36849 93.7357 3.64424 93.4515C4.44195 92.5658 5.29243 91.7361 6.14618 90.8932C8.58546 88.4458 11.028 86.0017 13.4739 83.5609C14.9078 82.1353 15.9363 82.1287 17.3833 83.5379C18.5338 84.654 19.671 85.7866 20.7818 86.9423C21.2664 87.4493 21.6389 87.5777 22.1993 87.0081C24.6748 84.4861 27.1833 81.9904 29.6918 79.4947C29.8835 79.3085 30.0359 79.0858 30.14 78.8399C30.2442 78.5939 30.298 78.3296 30.2984 78.0625C30.4368 73.6243 30.5983 69.1729 30.7236 64.7478C30.7631 63.2958 30.9049 61.8702 31.485 60.5269C32.1015 59.0946 33.2156 58.525 34.3957 59.0057C35.5197 59.4634 35.9219 60.596 35.4406 62.0183C34.6825 64.2539 35.0055 66.585 34.8539 68.87C34.6198 72.3534 34.6198 75.8566 34.5572 79.3499C34.5468 79.8016 34.4433 80.2464 34.2534 80.6565C34.0634 81.0666 33.7909 81.4332 33.4529 81.7336C30.7961 84.3676 28.1788 87.0476 25.4956 89.6586C24.7506 90.3829 24.6385 90.8373 25.4461 91.634C30.3643 96.4871 35.2494 101.374 40.1016 106.295C40.8071 107.01 41.2026 106.934 41.8619 106.256C44.6462 103.402 47.4656 100.579 50.3202 97.7844C51.9058 96.2402 54.0088 96.3686 55.9899 96.3982C56.8568 96.3982 57.3941 97.2016 57.4963 98.1169C57.5725 98.5478 57.501 98.9917 57.2935 99.377C57.0859 99.7624 56.7544 100.067 56.3525 100.241C56.1032 100.388 55.8237 100.477 55.535 100.501C53.5572 100.455 52.3079 101.59 51.0586 102.914C48.9984 105.097 46.8492 107.194 44.6934 109.288C44.077 109.884 44.0341 110.276 44.6934 110.869C45.5184 111.613 46.2957 112.408 47.0206 113.249C47.8876 114.253 47.9205 115.32 47.0008 116.245C43.4375 119.834 39.9599 123.512 36.2252 126.926L34.4979 126.956Z" fill="white"/>
<path d="M0.941162 31.8857C2.17069 30.223 3.32769 30.1177 4.80445 31.5795C7.28658 34.039 9.77203 36.4984 12.2047 39.004C12.8937 39.7119 13.3156 39.6625 13.9913 39.004C22.4277 30.5226 30.8883 22.0599 39.373 13.6158C40.1213 12.8717 40.0554 12.4338 39.3401 11.7391C36.9206 9.3916 34.5571 6.9881 32.1772 4.59777C30.5587 2.97459 30.529 2.19428 32.042 0.534874H34.0198C37.4216 3.93709 40.8278 7.3393 44.2384 10.7415C45.7613 12.2692 45.7646 13.1845 44.2681 14.6925C43.1407 15.8317 42.02 16.9972 40.8597 18.087C40.3257 18.594 40.2894 18.9595 40.8366 19.4995C43.388 22.0083 45.9097 24.5468 48.4182 27.0721C48.6071 27.2586 48.8318 27.4052 49.0787 27.503C49.3256 27.6009 49.5898 27.648 49.8553 27.6417C51.4541 27.7076 53.0561 27.7965 54.6515 27.8985C55.2266 27.9234 55.7988 27.9949 56.3623 28.1125C56.8508 28.2152 57.2847 28.4929 57.5822 28.8933C57.8798 29.2936 58.0204 29.7888 57.9775 30.2856C57.8456 31.3457 57.2259 32.103 56.1546 32.1491C53.3198 32.2676 50.4948 31.9911 47.6765 31.7211C46.9348 31.6519 46.4503 31.0955 45.9558 30.5984C43.3187 27.9644 40.6454 25.3304 38.0446 22.6438C37.3854 21.9589 36.9832 21.9326 36.2844 22.6438C31.4058 27.5934 26.4943 32.5102 21.5498 37.394C20.8675 38.0525 20.9367 38.441 21.5762 39.0666C24.1934 41.6248 26.7151 44.2785 29.3687 46.8006C30.4948 47.8277 31.1995 49.2354 31.3465 50.7515C31.5179 52.2628 31.8047 53.7575 32.042 55.2589C32.2925 56.836 31.6497 57.9785 30.3642 58.2221C29.0786 58.4658 28.1095 57.5636 27.8392 55.9602C27.6282 54.9975 27.4818 54.0219 27.4008 53.0398C27.3349 51.1367 26.4481 49.7704 25.0933 48.5061C22.8617 46.445 20.7422 44.2522 18.6359 42.0561C17.9403 41.3351 17.4854 41.3647 16.8657 42.0923C16.246 42.82 15.6065 43.3896 14.9571 44.0184C13.6386 45.286 12.6497 45.2893 11.3542 43.9855C7.88651 40.535 4.42757 37.0746 0.977417 33.6044L0.941162 31.8857Z" fill="white"/>
</svg>
