<svg width="1920" height="1080" viewBox="0 0 1920 1080" fill="none" xmlns="http://www.w3.org/2000/svg">
<path d="M1928.99 1062.68V1096.99C1921.75 1096.1 1914.7 1094.06 1908.1 1090.96C1896.08 1085.56 1885.09 1078.17 1872.66 1073.6C1848.07 1064.72 1819.15 1067.97 1797.47 1053.35C1782.13 1042.94 1773.26 1025.22 1760.6 1011.65C1742.24 991.805 1716.44 980.964 1692.97 967.541C1669.5 954.118 1646.24 935.479 1639.97 909.17C1635.7 891.272 1639.97 871.866 1634.73 854.148C1627.57 830.037 1604.38 813.955 1594.49 790.842C1590.1 779.713 1587.96 767.825 1588.2 755.865C1587.86 721.272 1601.44 683.815 1631.89 667.4C1650.71 657.173 1673.11 656.483 1693.1 648.94C1709 642.932 1723.42 632.654 1740.2 629.892C1765.05 625.776 1789.59 638.995 1814.78 639.404C1823.88 639.557 1833.01 638.048 1842.09 638.969C1871.92 642.063 1898.69 671.082 1927.23 661.801H1928.99V696.19C1903.24 693.914 1877.47 677.858 1850.34 673.485C1848.02 673.102 1845.66 672.821 1843.31 672.616C1833.37 671.747 1823.4 672.258 1813.76 670.75C1790.54 667.093 1769.29 651.753 1746.03 653.159C1743.63 653.3 1741.25 653.608 1738.89 654.08C1725.6 656.636 1713.86 664.307 1701.41 670.315C1690.67 675.19 1679.56 679.192 1668.17 682.281C1659.97 684.245 1652 687.065 1644.39 690.693C1633.44 696.504 1624.88 705.979 1620.21 717.462C1614.38 732.189 1615.32 747.479 1618.32 762.206C1620 771.567 1622.99 780.646 1627.19 789.18C1636.78 807.614 1654.42 822.188 1660.02 842.438C1664.59 859.031 1661.14 877.236 1665.69 893.573C1666.47 896.374 1667.48 899.11 1668.68 901.755C1677.38 920.522 1696.2 932.718 1714.5 943.226L1717.72 945.067C1737.97 956.547 1758.76 968.078 1774.43 984.876C1775.74 986.282 1776.99 987.74 1778.24 989.223C1789.31 1002.57 1797.32 1018.93 1811.48 1029.11C1830.09 1042.58 1854.72 1041.89 1876.73 1047.93C1887.67 1051.02 1897.82 1055.83 1908.59 1059.1C1915.18 1061.27 1922.05 1062.47 1928.99 1062.68Z" fill="#0064C8" fill-opacity="0.03"/>
<path d="M1928.99 1000.63V1027.98C1922.37 1028.56 1915.71 1028.41 1909.12 1027.52C1899.61 1026.35 1890.38 1024.2 1880.85 1022.41C1861.41 1019.01 1841.11 1017.3 1825.52 1005.02C1812.89 995.052 1805.63 979.993 1796.14 967.004C1795.07 965.547 1793.99 964.115 1792.87 962.734C1779.5 946.013 1761.57 933.383 1742.73 922.798C1741.76 922.235 1740.76 921.672 1739.74 921.136C1722.63 911.675 1703.81 902.624 1694.79 885.571C1693.54 883.194 1692.51 880.713 1691.7 878.156C1686.86 863.173 1689.39 846.171 1685.53 830.651C1681.47 814.288 1669.4 801.197 1660.17 787.441C1655.8 780.947 1652.19 774.427 1648.69 768.47C1642.84 758.575 1636.7 748.501 1639.15 736.127C1640.97 726.743 1648.28 718.587 1657.05 713.934C1664.13 710.226 1672.03 708.59 1679.58 706.033C1690.05 702.269 1700.1 697.446 1709.59 691.639C1720.97 684.94 1732.07 677.73 1744.93 676.477C1747.18 676.286 1749.45 676.286 1751.7 676.477C1773.38 677.807 1791.36 695.755 1812.63 702.045C1822.86 705.087 1833.6 705.42 1844.41 706.212C1846.97 706.417 1849.53 706.647 1852.08 706.928C1878.39 709.869 1903.98 719.405 1928.79 726.462V755.098C1904.5 747.128 1879.32 742.181 1853.82 740.371C1844.69 740.008 1835.58 739.155 1826.54 737.814C1821.37 736.941 1816.33 735.438 1811.53 733.34C1790.03 723.675 1774.59 699.181 1751.01 698.951C1728.15 698.721 1712.2 721.553 1690.93 729.914C1683.92 732.675 1676.3 733.826 1669.6 737.252C1662.91 740.678 1656.97 747.479 1657.74 754.893C1659.1 768.189 1677.63 772.791 1685.48 781.612C1695.89 793.45 1705.14 807.921 1704.91 824.157C1704.76 834.128 1701.64 844.611 1705.4 853.739C1709.59 863.966 1721.2 869.616 1726.14 879.588C1730.15 887.718 1729.46 898.176 1735.7 904.747C1743.19 912.57 1755.9 910.423 1766.38 912.417C1784.63 915.945 1797.06 932.462 1806.8 948.212C1816.54 963.962 1826.08 981.45 1842.8 989.632C1851.78 994.004 1861.95 995.129 1871.87 996.203C1886.8 998.018 1912.88 999.117 1928.99 1000.63Z" fill="#0064C8" fill-opacity="0.03"/>
<path d="M1928.99 923.615V965.137C1916.9 965.137 1904.52 959.257 1892.1 959.104C1876.4 958.899 1860.01 967.541 1845.69 961.149C1838.61 957.979 1833.55 951.638 1828.3 945.808C1818.81 935.949 1808.55 926.86 1797.62 918.63L1802.22 914.155C1809.44 920.153 1817.62 924.883 1826.41 928.141C1845.26 934.84 1864.43 929.087 1883.68 927.987C1894.14 927.399 1904.7 929.931 1915.08 928.345C1919.97 927.631 1924.68 926.028 1928.99 923.615Z" fill="#0064C8" fill-opacity="0.03"/>
<path d="M1928.99 870.946V884.318C1927.88 888.025 1926.24 891.555 1924.13 894.801C1905.29 924.638 1880.67 918.016 1850.85 912.417C1823.73 907.303 1796.01 897.409 1778.06 875.395C1773.9 870.281 1770.39 864.656 1766.02 859.722C1762.21 855.929 1758.66 851.889 1755.38 847.628C1745.16 832.288 1750.86 811.987 1757.81 795.061C1758.76 792.256 1760.23 789.654 1762.13 787.39C1767.55 781.689 1776.81 782.507 1784.35 784.833C1791.9 787.16 1799.69 790.561 1807.36 788.694C1816.31 786.47 1822.37 777.521 1831.32 775.297C1842.9 772.408 1853.77 781.689 1861.41 790.868C1868.46 799.362 1874.79 808.417 1880.36 817.944C1885.47 826.688 1890.05 835.995 1897.52 842.796C1907.92 852.46 1924.64 857.702 1928.99 870.946ZM1882.66 894.622C1885.64 892.396 1888.09 889.534 1889.82 886.243C1891.56 882.952 1892.53 879.316 1892.68 875.599C1892.68 865.372 1885.01 856.832 1877.04 850.645C1869.06 844.458 1859.7 839.37 1853.67 831.188C1849.5 825.537 1847.12 818.762 1843.24 812.907C1834.47 799.739 1824.52 801.836 1812.89 808.995C1802.66 815.336 1794.53 816.384 1783.51 820.22C1759.42 828.555 1778.4 855.298 1793.15 864.401C1803.66 870.92 1815.57 875.037 1825.82 881.94C1835.08 888.179 1843.13 896.718 1853.8 900.017C1858.69 901.476 1863.86 901.747 1868.88 900.809C1873.9 899.871 1878.62 897.75 1882.66 894.622Z" fill="#0064C8" fill-opacity="0.03"/>
<path d="M1928.99 797.464V840.724C1916.79 834.997 1905.65 827.608 1899 816.154C1894.06 807.665 1892.12 797.643 1886.98 789.256C1881.84 780.87 1874.2 774.938 1866.12 769.671C1854.59 762.129 1839.68 755.865 1827.46 762.231C1822.6 764.788 1818.77 769.032 1813.73 771.103C1803.86 775.092 1793.05 769.646 1783.05 766.373C1776.03 764.075 1768.7 762.817 1761.32 762.64C1742.32 762.18 1725.52 776.677 1730.35 796.773C1731.91 803.395 1735.01 809.557 1736.44 816.282C1739.92 832.568 1734.11 852.613 1746.26 864.017C1750.37 867.877 1755.87 869.846 1760.73 872.786C1769.55 878.13 1776.07 886.593 1782.59 894.493C1788.55 901.708 1795.2 908.335 1802.43 914.283L1797.83 918.757L1793.22 915.152C1787.41 910.22 1781.04 905.997 1774.23 902.573C1766.56 899.045 1756.94 897.638 1750.3 891.937C1744.16 886.67 1741.09 878.258 1736.36 871.815C1728.23 860.821 1725.14 848.267 1721.02 835.023C1718.46 827.046 1718.62 818.762 1717.75 810.503C1716.47 798.333 1721.23 791.123 1713.5 780.538C1708.39 773.711 1699.16 766.45 1701.33 756.862C1703.07 749.192 1711.69 745.51 1719.23 743.055L1742.47 735.385C1747.65 733.288 1753.18 732.22 1758.76 732.24C1774.46 733.314 1786.24 750.956 1801.87 749.345C1807.75 748.757 1813.04 745.408 1818.89 744.538C1821.1 744.212 1823.35 744.273 1825.54 744.717C1831.17 745.791 1836.49 748.808 1841.98 750.419C1850.42 752.667 1859.06 754.029 1867.78 754.484C1880.31 755.481 1894.04 758.064 1901.76 767.958C1905.6 772.867 1907.46 779.029 1911.14 784.04C1915.94 789.868 1922.06 794.469 1928.99 797.464Z" fill="#0064C8" fill-opacity="0.03"/>
<path d="M1928.99 605.935V628.461C1924.69 626.927 1920.42 625.137 1916.21 623.526C1893.37 614.653 1868.86 610.917 1844.41 612.583C1832.62 613.376 1820.61 615.447 1809.08 612.736C1802.05 611.074 1795.5 607.623 1788.47 605.91C1780.2 604.204 1771.74 603.594 1763.31 604.095C1742.04 604.478 1720.02 604.989 1700.72 613.964C1680.5 623.398 1662.37 642.088 1640.28 640.068C1621.23 638.304 1586.59 604.273 1591.96 583.691C1593.8 576.788 1599.47 570.396 1597.76 563.442C1595.92 556.078 1586.99 553.215 1582.42 546.976C1578.92 542.118 1578.28 535.368 1573.83 531.38C1560.23 519.235 1526.12 531.763 1508.55 521.817C1483.65 507.704 1501.44 492.338 1522.15 493.284C1542.86 494.23 1563.96 499.548 1584.36 495.329C1621.46 487.659 1652.17 449.307 1689.19 457.412C1704.35 460.685 1717.08 471.5 1732.27 474.67C1757.23 479.784 1782.13 463.344 1807.54 465.236C1814.55 465.773 1821.43 467.792 1828.43 467.409C1863.46 466.003 1891.69 414.074 1928.73 426.782V443.503C1914.6 445.906 1901.4 455.878 1889.03 462.73C1879.24 468.15 1870.26 470.17 1859.75 472.957C1847.68 476.153 1837.15 483.696 1824.93 486.227C1808.18 489.704 1790.85 481.931 1773.79 484.181C1762.54 485.639 1752.14 491.468 1740.81 492.056C1732.76 492.491 1724.81 490.215 1716.78 489.5C1694.94 487.301 1680.78 500.059 1660.53 503.357C1658.69 503.664 1656.82 503.894 1654.95 504.099C1640.43 505.337 1625.83 505.192 1611.34 503.664L1605.68 503.23C1599.09 502.518 1592.43 503.632 1586.43 506.451C1579.89 510.031 1577.23 516.908 1586.2 523.888C1596.94 532.249 1620.16 524.911 1629.92 534.243C1633.07 537.235 1633.71 541.914 1636.29 545.544C1639.54 550.019 1645.8 552.32 1647.39 557.536C1651.12 569.757 1640.46 572.876 1652.91 582.566C1663.6 590.748 1678.89 598.598 1692.59 594.66C1698.27 593.024 1703.41 589.546 1709.31 588.882C1714.42 588.396 1719.41 590.211 1724.35 591.592C1745.98 597.703 1766.35 590.16 1787.98 590.697C1807.39 591.157 1825.26 604.555 1844.64 602.842C1849.32 602.179 1853.95 601.249 1858.53 600.055C1874.86 596.782 1891.76 600.055 1908.1 603.251C1915.01 604.556 1921.98 605.452 1928.99 605.935Z" fill="#0064C8" fill-opacity="0.03"/>
<path d="M1928.99 572.927V591.106C1917.48 590.569 1907.51 587.271 1895.75 584.739C1884.33 582.286 1872.49 582.54 1861.18 585.481C1853.95 587.373 1846.79 590.39 1839.3 590.057C1832.78 589.776 1826.67 586.938 1820.48 584.944C1805.39 579.83 1793.1 581.109 1778.01 582.387C1762.93 583.665 1745.87 579.242 1731.73 574.87C1723.25 572.189 1714.97 568.908 1706.96 565.052C1696.5 559.939 1700.85 560.629 1697.04 551.885C1695.71 548.817 1692.05 547.155 1690.01 544.368C1688.37 542.169 1687.73 539.254 1685.92 537.337C1679.98 530.817 1667.53 532.581 1663.72 526.215C1659.91 519.848 1665.64 515.348 1672.08 513.763C1677.7 512.683 1683.46 512.562 1689.11 513.405C1690.75 513.584 1692.36 513.763 1694.02 513.891C1710.9 515.169 1729.69 512.792 1746.28 509.596C1765.1 505.965 1783.48 497.297 1803.07 499.726C1813.3 500.979 1823.22 505.275 1833.39 504.15C1845.43 502.82 1855.23 494.28 1865.07 487.249C1880.03 476.562 1894.91 479.042 1911.35 473.596C1917.1 471.678 1922.98 469.045 1928.94 466.667V482.238C1910.17 486.329 1892.66 494.459 1883.35 508.394C1876.06 519.337 1861.34 522.635 1848.2 522.073C1835.05 521.51 1821.99 518.059 1808.92 519.362C1798.08 520.411 1787.52 524.732 1776.66 523.939C1770.29 523.479 1764.13 521.382 1757.74 520.922C1751.34 520.462 1744.16 522.686 1741.25 528.362C1737.56 535.521 1742.81 544.547 1749.94 548.229C1757.07 551.91 1765.46 551.885 1773.46 552.626C1788.55 554.035 1803.22 558.377 1816.64 565.41C1824.32 569.348 1831.99 574.308 1840.58 573.643C1849.17 572.978 1856.45 566.509 1864.48 562.879C1877.7 556.947 1893.22 558.967 1906.92 563.748C1914.52 566.126 1921.73 569.552 1928.99 572.927Z" fill="#0064C8" fill-opacity="0.03"/>
<path d="M1928.99 349.643V389.427L1883.45 399.424C1872 402.37 1860.27 404.085 1848.45 404.537C1835.67 404.537 1819.3 403.591 1814.14 415.276C1812.84 418.165 1812.55 421.489 1811.05 424.276C1807.85 430.105 1800.46 431.946 1793.89 432.994C1771.05 436.801 1747.99 439.149 1724.86 440.026C1712.25 440.511 1698.68 440.281 1688.45 432.867C1684.18 429.799 1680.78 425.58 1676.05 423.151C1667.51 418.753 1656.82 421.412 1648.82 426.756C1640.82 432.1 1634.68 439.719 1627.72 446.341C1597.25 475.386 1550.79 488.579 1513.59 468.841C1493.34 458.113 1471.09 451.688 1448.24 449.972C1435.17 449 1421.57 449.511 1409.5 444.347C1394.9 438.108 1384.63 424.455 1370.33 417.552C1348.37 406.941 1316.18 410.827 1305.54 388.89C1301.94 381.45 1302.12 372.603 1298.59 365.112C1295.62 358.771 1290.2 353.862 1286.91 347.675C1281.33 337.217 1282.33 324.664 1281.43 312.902C1279.19 286.156 1266.53 261.362 1246.18 243.869C1239.02 237.759 1230.55 232.517 1221.14 231.776C1208.67 230.804 1196.14 237.886 1184.02 234.844C1169.45 231.188 1162.01 214.185 1162.57 199.049C1163.13 183.913 1169.34 169.902 1172.49 155.2C1178.09 128.789 1170.67 96.7521 1146.64 84.4284C1138.97 80.5421 1130 78.5733 1124.78 71.8745C1121.81 68.1161 1120.48 63.2327 1117.44 59.4998C1108.11 48.0454 1090.16 53.2357 1075.36 53.2612C1049.28 53.2612 1025.19 30.7104 1023.63 4.68237C1022.41 -15.5674 1033.09 -35.1779 1031.79 -55.4532C1029.23 -95.339 982.367 -122.492 974.978 -159.642H1007.68C1008.96 -145.452 1017.42 -131.338 1027.24 -120.319C1041.02 -104.978 1058.2 -91.4272 1066.05 -72.2513C1072.8 -55.7856 1071.68 -37.3001 1072.49 -19.5049C1073.31 -1.70964 1076.99 17.5173 1090.39 29.304C1107.16 44.1078 1133.86 42.446 1151.04 56.7128C1158.3 62.7213 1167.38 77.167 1178.14 75.0193C1189.85 72.6415 1190.18 57.6077 1193.84 49.1447C1196.8 42.2925 1202.97 36.5654 1203.4 29.0996C1203.63 25.0343 1202.1 21.1224 1201.53 17.0827C1199.54 3.40392 1208.95 -9.71231 1220.56 -17.2037C1225.08 -20.1184 1230.07 -22.4963 1233.62 -26.5104C1244.36 -38.5784 1245.33 -64.1463 1244.05 -79.1034C1243.29 -88.1033 1241.34 -97.0009 1241.73 -106.077C1242.52 -124.87 1253.13 -141.872 1259.8 -159.642H1275.14C1264.64 -147.421 1259.96 -128.117 1260.93 -111.268C1262.46 -85.3676 1271.51 -58.9304 1264.18 -34.0018C1255.64 -5.03342 1226.72 14.7305 1219.15 43.9801C1213.27 66.7866 1221.48 91.5618 1215.01 114.215C1207.08 141.905 1188.9 175.092 1220.45 197.055C1234.36 206.745 1251.67 205.824 1266.02 197.873C1279.03 190.637 1286.24 179.259 1301.27 174.376C1312.93 170.592 1325.72 167.703 1334 158.677C1340.62 151.518 1343.26 141.598 1348.34 133.289C1356.37 120.249 1368.8 114.317 1380.48 105.573C1392.17 96.8287 1401.91 86.8829 1413.72 78.6501C1464.45 43.4432 1520.11 -7.87146 1585.03 -10.6839C1618.26 -12.1157 1654.32 -0.0222168 1683.31 -16.3601C1700.26 -25.9224 1711.23 -43.6665 1727.67 -54.047C1748.94 -67.4701 1775.79 -66.6774 1800.84 -68.8251C1846.48 -72.7969 1890.49 -87.706 1929.14 -112.29V-36.2262C1922.18 -27.6325 1913.31 -20.7708 1903.25 -16.1794C1893.18 -11.5879 1882.19 -9.39185 1871.13 -9.76352C1857.14 -10.4538 1843.67 -15.3373 1829.76 -16.9225C1776.66 -22.9565 1729.13 18.8725 1675.82 22.5543C1650.05 24.3951 1624.27 17.185 1598.5 18.7447C1570.73 20.4066 1544.81 32.0655 1519.37 43.5199C1503.29 50.8067 1486.31 58.8606 1476.72 73.6899C1471.4 81.9739 1468.79 91.7919 1463.4 100.025C1450.62 119.482 1425.84 125.976 1404.59 135.462C1379.26 146.814 1339.7 169.211 1331.32 197.617C1329.19 204.75 1328.76 212.472 1325.38 219.069C1319.58 230.293 1306.62 235.662 1298.13 245.02C1282.1 262.636 1289.97 280.815 1301.84 298.482C1305.03 303.238 1310.1 308.709 1315.46 306.638C1317.74 305.743 1319.56 303.57 1322.01 303.468C1323.27 303.627 1324.48 304.099 1325.51 304.84C1326.55 305.581 1327.38 306.568 1327.94 307.712C1332.63 315.062 1334.45 323.881 1333.06 332.487C1331.92 336.919 1331.06 341.42 1330.5 345.962C1330.53 350.281 1331.4 354.552 1333.06 358.541C1345.84 392.802 1389.13 418.37 1425.1 415.532C1442.51 414.151 1459.95 406.864 1476.95 410.904C1485.9 413.026 1493.8 418.14 1502.03 422.231C1540.38 441.304 1591.52 435.807 1620.85 404.333C1641.79 381.808 1658.38 372.527 1690.62 376.592C1711.61 379.149 1733.17 384.518 1754.54 382.396C1783.43 379.507 1786.01 362.274 1807.47 349.925C1814.14 346.089 1822.6 347.368 1829.81 350.052C1837.02 352.737 1843.87 356.649 1851.47 357.902C1869.37 360.842 1886.34 348.467 1904.47 347.163C1912.32 346.626 1920.71 348.314 1928.99 349.643Z" fill="#0064C8" fill-opacity="0.03"/>
<path d="M1928.99 296.36V322.976C1926.43 322.593 1924.13 322.107 1921.73 321.544C1918.53 320.826 1915.38 319.921 1912.29 318.834C1907.82 317.224 1903.98 315.357 1900.3 313.976C1896.2 312.394 1891.9 311.379 1887.52 310.959C1876.91 309.911 1864.51 313.133 1851.03 313.516C1843.62 313.516 1836.51 311.752 1829.12 310.959C1821.57 309.869 1813.86 311.015 1806.95 314.258C1789.29 323.82 1780.21 335.632 1765.51 339.161C1760.68 340.162 1755.76 340.642 1750.83 340.592C1741.61 340.417 1732.4 339.734 1723.25 338.547C1711.27 336.945 1699.14 336.945 1687.17 338.547C1685.51 338.828 1683.95 339.212 1682.41 339.621C1676.3 341.396 1670.44 343.975 1665 347.291C1649.97 355.431 1635.75 364.986 1622.53 375.825C1594.05 399.808 1551.33 407.248 1516.4 394.668C1514.69 394.08 1513.03 393.416 1511.29 392.751C1505.58 390.253 1499.66 388.276 1493.6 386.845C1479.84 384.134 1465.88 387.637 1452 389.836L1447.7 390.45C1438.81 391.701 1429.78 391.572 1420.93 390.066C1396.9 385.873 1373.22 369.612 1364.04 347.598C1362.61 344.317 1361.75 340.815 1361.49 337.243C1361.57 333.483 1361.92 329.733 1362.51 326.019C1363.12 318.843 1361.84 311.632 1358.8 305.104C1357.91 303.238 1356.6 301.346 1354.97 300.988C1353.33 300.63 1352.26 301.678 1350.85 301.857C1347.48 302.292 1344.41 297.715 1342.67 293.65C1340.2 288.296 1338.47 282.626 1337.56 276.801C1336.93 271.987 1337.38 267.093 1338.89 262.479C1340.4 257.864 1342.92 253.646 1346.27 250.134C1349.83 246.043 1353.94 242.463 1357.52 238.73C1361 235.345 1363.69 231.245 1365.42 226.713C1367.39 221.063 1367.21 214.696 1368.42 208.662C1373.22 185.012 1402.37 165.197 1423.13 154.97C1439.95 146.558 1459.64 141.01 1471.35 126.845C1476.31 120.914 1478.69 113.269 1484.37 108.053C1493.62 99.5902 1506.33 94.9879 1518.52 89.7209C1526.76 86.167 1535.73 82.5365 1541.82 76.4258C1543.94 73.7831 1546.22 71.2728 1548.64 68.9088C1561.3 58.6817 1578.81 53.5681 1595.15 51.0113C1603.76 49.7153 1612.48 49.287 1621.18 49.733C1629.08 50.142 1636.98 51.2415 1644.93 52.2897C1660.78 54.4374 1676.64 56.2271 1692.49 55.0509C1718.36 53.1589 1743.21 43.5711 1768.17 38.0484C1790.55 33.1728 1813.43 30.8992 1836.33 31.2729C1849.03 31.8617 1861.75 31.6568 1874.43 30.6593C1876.73 30.4036 1879.03 30.0712 1881.33 29.6621C1898.5 26.7865 1914.79 20.0648 1928.99 10.0005V55.4857C1915 60.2925 1899.13 64.4344 1884.02 69.0622L1877.88 70.9542C1866.22 74.6104 1855.35 78.2666 1842.95 79.6217C1821.81 81.8973 1800.9 78.3177 1780.06 78.7524C1756.48 79.2382 1733.14 86.0904 1709.31 87.9313C1694.68 89.0206 1679.97 88.1609 1665.56 85.3745C1658.33 83.9938 1651.17 82.2807 1644.04 80.9512C1636.2 79.4013 1628.22 78.6221 1620.23 78.6246C1604.89 78.8035 1587.69 83.0733 1578.05 94.3999C1575 97.9282 1573.75 102.505 1571.12 106.34C1564.52 115.979 1552.15 120.428 1540.84 124.237C1524.2 129.914 1506.84 133.902 1492.27 142.544C1487.33 145.459 1484.14 150.214 1479.48 153.794C1468.82 162.359 1454.25 167.038 1441.85 174.248C1425.69 183.708 1406.87 200.736 1405.69 219.631C1405.39 224.54 1406.18 229.577 1405.69 234.23C1405.26 237.989 1404.06 241.619 1402.17 244.892C1399.94 248.503 1397.41 251.923 1394.62 255.119C1389.57 260.893 1385.99 267.806 1384.19 275.267C1383.34 279.689 1383.16 284.214 1383.65 288.69C1383.73 291.649 1384.67 294.52 1386.36 296.948C1386.98 297.356 1387.56 297.828 1388.08 298.354C1388.92 299.557 1389.51 300.925 1389.79 302.369C1391.21 307.94 1392 313.65 1392.17 319.397C1392.14 322.388 1392.32 325.378 1392.7 328.345C1393.24 331.182 1394.18 333.928 1395.49 336.502C1404.7 355.371 1426.61 367.95 1447.7 368.155C1455.45 368.012 1463.17 367.044 1470.71 365.265L1474.42 364.55C1486.31 361.902 1498.55 361.271 1510.65 362.683C1516.07 363.476 1521.29 364.882 1526.48 366.058C1528.01 366.416 1529.52 366.723 1531.05 367.03C1562.45 373.089 1597.17 363.962 1624.55 347.138C1640.18 337.55 1656.49 329.624 1666.92 317.786C1671.32 312.8 1674.46 307.559 1679.7 303.315C1680.99 302.287 1682.36 301.363 1683.79 300.553C1693.48 295.133 1706.96 293.982 1719.59 295.107C1728.95 295.951 1738.15 297.664 1747.41 298.661C1752.31 299.272 1757.26 299.426 1762.19 299.121C1775.2 297.945 1788.44 287.769 1806.57 278.667C1813.55 275.291 1821 272.965 1828.66 271.764C1836.33 270.434 1843.59 269.821 1850.88 268.824C1865.35 266.829 1878.08 265.142 1887.06 271.176C1890.67 273.881 1893.87 277.103 1896.54 280.738C1899.18 284.24 1902.4 287.266 1906.06 289.687C1908.93 291.374 1912 292.681 1915.21 293.573C1919.7 294.969 1924.31 295.903 1928.99 296.36Z" fill="#0064C8" fill-opacity="0.03"/>
<path d="M1928.99 248.651V269.437C1922 269.325 1915.08 268.019 1908.54 265.576C1905.29 264.465 1902.29 262.727 1899.72 260.463C1891.81 253.125 1892.51 240.29 1886.55 231.29C1864.64 198.052 1789.7 260.923 1759.07 258.878C1744.47 257.906 1730.43 252.818 1715.86 251.668C1701.28 250.517 1684.77 254.429 1677.1 266.88C1673.08 273.349 1671.98 281.25 1668.74 288.127C1661.07 304.209 1642.99 312.008 1626.4 318.476C1599.04 329.113 1570.81 339.928 1541.43 339.365C1526.45 339.084 1511.21 335.811 1496.61 339.365C1488.94 341.18 1481.89 344.734 1474.24 346.32C1465.16 348.03 1455.77 346.966 1447.31 343.268C1438.84 339.569 1431.68 333.407 1426.76 325.584C1422.16 317.577 1420.06 308.369 1420.76 299.158C1421.46 289.947 1424.91 281.159 1430.67 273.937C1436.71 266.676 1445.43 260.514 1446.68 251.156C1447.6 244.227 1444.12 237.58 1442.89 230.702C1440.57 216.537 1448.98 202.322 1460.49 193.68C1471.99 185.038 1486.05 180.896 1499.91 176.933L1563.14 158.677C1577.48 154.535 1593.31 149.268 1600.42 136.127C1603.23 131.013 1604.36 124.877 1607.42 119.763C1614.74 107.542 1631.18 103.911 1645.26 106.059C1659.35 108.206 1672.37 114.752 1686.17 118.255C1721.23 127.178 1756.18 111.633 1791.95 119.073C1811.17 123.087 1830.53 132.445 1849.6 127.715C1863.18 124.34 1874.02 114.292 1886.7 108.334C1899.79 102.147 1914.34 100.485 1928.96 100.255V119.354C1919.62 117.876 1910.07 118.478 1900.99 121.118C1886.96 125.235 1874.76 133.902 1861.13 139.399C1846.39 145.211 1830.34 146.908 1814.7 144.308C1804.68 142.646 1794.91 139.195 1784.76 138.709C1766.02 137.763 1748.43 146.839 1730.17 151.135C1712.26 155.33 1693.57 154.943 1675.84 150.01C1660.99 145.842 1646.03 138.453 1630.9 141.496C1613.2 145.05 1601.52 161.541 1586.3 171.206C1564.5 185.063 1535.17 184.935 1515.66 201.887C1507.99 208.662 1502.39 217.662 1494.87 224.719C1490.22 229.091 1484.83 232.722 1480.71 237.503C1477.13 241.798 1471.51 250.824 1470.48 256.398C1469.1 264.324 1475.21 271.738 1473.04 279.843C1471.74 284.625 1467.47 288.051 1465.57 292.627C1464.57 295.607 1464.36 298.799 1464.98 301.883C1465.6 304.967 1467.02 307.833 1469.1 310.192C1473.35 314.855 1478.74 318.32 1484.75 320.24C1490.52 322.455 1496.6 323.749 1502.77 324.076C1509.8 324.121 1516.81 323.409 1523.69 321.953L1592.88 309.834C1604.61 307.763 1610.77 306.459 1619.39 298.15C1626.06 291.656 1629.18 282.451 1633.78 274.372C1642.38 259.312 1656.39 247.884 1671.68 239.702C1688.04 230.932 1713.86 219.248 1732.86 220.833C1744.42 221.779 1754.57 228.887 1765.87 231.546C1785.32 236.097 1805.04 227.097 1823.52 219.554C1842.01 212.012 1863.77 205.927 1881.26 215.591C1892.12 221.6 1899.15 232.696 1909.25 240.06C1915.11 244.364 1921.85 247.299 1928.99 248.651Z" fill="#0064C8" fill-opacity="0.03"/>
<path d="M1928.99 206.515V230.088C1924.82 229.121 1920.78 227.635 1916.97 225.665C1902.02 217.995 1891.41 204.853 1875.17 199.228C1857.27 193.015 1844.49 202.194 1827.97 208.714C1817.72 212.658 1806.74 214.366 1795.77 213.722C1784.81 213.078 1774.11 210.098 1764.38 204.981C1758.76 201.989 1753.21 197.873 1751.11 191.864C1746.79 179.566 1758.91 167.549 1770.98 162.589C1783.12 157.635 1796.32 155.875 1809.33 157.476C1815.83 158.294 1822.35 160.033 1828.82 159.035C1837.71 157.783 1845.33 151.851 1854.08 149.856C1860.34 148.45 1866.86 149.115 1873.18 147.939C1883.56 146.021 1892.38 139.297 1902.3 135.718C1910.81 132.687 1919.99 131.998 1928.86 133.723V149.831C1925.12 150.495 1921.33 150.854 1917.54 150.905C1900.92 150.624 1896.62 155.814 1882.2 163.228C1878.5 165.432 1874.41 166.924 1870.16 167.626C1866.14 167.671 1862.12 167.397 1858.14 166.808C1852.99 166.531 1847.86 167.496 1843.16 169.62C1839.02 171.487 1834.87 175.041 1835.05 179.592C1835.28 181.511 1836.09 183.314 1837.37 184.755C1838.66 186.196 1840.36 187.206 1842.24 187.646C1846.01 188.477 1849.93 188.345 1853.64 187.262C1877.29 181.867 1887.9 181.816 1907.18 196.288C1913.67 201.16 1921.09 204.642 1928.99 206.515Z" fill="#0064C8" fill-opacity="0.03"/>
<path d="M1796.27 -159.642H1890.23C1864.97 -138.753 1823.04 -112.239 1794.43 -103.853C1779.72 -99.5988 1764.74 -96.3863 1749.58 -94.2395C1732.76 -91.6828 1715.32 -90.3277 1699.8 -84.0124C1695.39 -82.2195 1691.16 -80.0018 1687.17 -77.3904C1673.06 -68.0838 1662.85 -53.4844 1648.43 -44.6891C1647.18 -43.9221 1645.88 -43.2062 1644.62 -42.5415C1620.62 -30.0644 1592.08 -34.5643 1564.93 -31.4962C1522.36 -26.715 1482.65 -4.52216 1445.76 18.1565C1434.38 25.1621 1423.08 32.3978 1412.52 39.6335C1405.04 44.9556 1398.12 51.0205 1391.86 57.7356C1389.66 59.9856 1387.51 62.261 1385.26 64.4598C1382.55 67.0804 1379.7 69.5555 1376.73 71.8745C1370.03 76.9881 1362.89 81.3347 1357.22 87.9056C1351.54 94.4765 1348.01 101.712 1341.88 107.695C1334.21 115.11 1323.98 118.792 1314.52 123.24C1311.16 124.867 1308.02 126.902 1305.16 129.3C1298.67 134.669 1293.6 141.24 1286.39 146.302C1284.21 147.852 1281.9 149.212 1279.49 150.368C1274.59 152.931 1269.13 154.24 1263.61 154.178C1258.08 154.115 1252.65 152.683 1247.81 150.01C1233.29 141.419 1230.2 126.999 1232.22 113.167C1234.24 99.3344 1240.42 86.0902 1245.66 74.0477C1246.64 71.8489 1247.48 69.6502 1248.22 67.4514C1250.99 59.4423 1253.09 51.2147 1254.49 42.8551C1255.89 32.8815 1257.83 22.9898 1260.29 13.2219C1265.97 -6.36302 1280.33 -22.0361 1288.41 -40.2659C1290.29 -44.3768 1291.77 -48.6575 1292.84 -53.0498C1297.8 -73.862 1291.2 -95.697 1291.38 -116.969C1291.51 -132.157 1296.85 -148.597 1306.72 -159.591H1338.65C1329.27 -149.451 1323.48 -136.504 1322.19 -122.748C1320.53 -106.001 1324.41 -88.7169 1321.88 -72.0211C1321.34 -68.5111 1320.55 -65.0427 1319.53 -61.6406C1315.06 -46.5556 1306.75 -32.8258 1301.63 -17.5106C1298.99 -8.62306 1295.76 0.080368 1291.97 8.54298C1288.39 15.3995 1284.38 22.0259 1279.98 28.3836C1278.83 30.1734 1277.68 32.0143 1276.5 33.8808C1269.36 44.5531 1264.27 56.4684 1261.52 69.011C1259.16 81.7949 1262.1 96.9311 1275.22 102.94C1284.09 107.005 1294.04 104.422 1301.63 99.0531C1303.45 97.7528 1305.16 96.3078 1306.75 94.7322C1312.04 89.6186 1315.87 83.6613 1320.73 78.4199C1322.86 76.0931 1325.2 73.9782 1327.74 72.1047C1334.79 66.9911 1342.77 62.5168 1349.73 56.764C1355.53 51.9317 1360.41 46.767 1366.19 42.5483C1371.97 38.3296 1378.64 35.4659 1384.09 30.608C1386.4 28.4165 1388.47 25.9918 1390.28 23.3724C1391.78 21.1992 1393.24 18.9748 1394.8 16.8271C1399.38 10.4942 1405.04 5.01601 1411.52 0.642609C1420.91 -5.48575 1430.75 -10.8714 1440.98 -15.4651C1474.22 -30.8058 1509.4 -44.8681 1545.01 -52.2828C1567.77 -57.0384 1590.75 -58.8793 1610.59 -70.9473C1611.64 -71.5865 1612.69 -72.2514 1613.71 -72.9673C1625.65 -81.0211 1635.06 -92.4499 1646.95 -100.734C1650.27 -103.056 1653.76 -105.133 1657.38 -106.947C1670.17 -113.364 1684.48 -116.407 1698.57 -119.603C1711.2 -122.492 1723.96 -125.586 1736.41 -129.472C1757.76 -136.196 1778.96 -145.631 1796.27 -159.642Z" fill="#0064C8" fill-opacity="0.03"/>
<path d="M1868.73 1124.96V1129.1H1785.43C1778.09 1112.69 1759.48 1100.8 1741.6 1094.43C1718.59 1086.23 1692.54 1081.8 1675.38 1064.29C1667.1 1055.83 1661.73 1045.04 1656.46 1034.4L1621.56 964.064C1619.3 958.595 1615.93 953.651 1611.67 949.541C1607.74 946.815 1603.62 944.371 1599.34 942.229C1577.97 929.138 1575.97 900.963 1569.4 879.255C1565.97 867.082 1560 855.774 1551.87 846.079C1543.75 836.383 1533.67 828.519 1522.28 823.006C1504.57 814.75 1485.05 811.125 1465.55 812.472C1447.65 813.444 1430.29 821.114 1412.72 814.697C1397.03 808.944 1384.6 796.799 1373.04 784.706C1366.09 777.495 1360.72 766.092 1353.82 759.905C1344.61 751.672 1331.93 753.973 1321.27 749.243C1299.1 739.374 1310.27 723.087 1312.7 707.593C1315.46 690.054 1304.73 669.829 1292.02 658.452C1284.64 651.947 1275.86 647.217 1266.37 644.624C1256.88 642.032 1246.92 641.645 1237.25 643.495C1226.57 645.642 1216.64 650.474 1206.19 653.517C1183.43 660.139 1164.92 652.392 1142.65 652.545C1122.84 652.699 1106.17 664.562 1088.96 672.463C1075.55 678.527 1061.06 681.875 1046.35 682.314C1031.64 682.753 1016.98 680.274 1003.23 675.02C998.046 673.373 993.401 670.362 989.782 666.301C984.668 659.5 985.052 650.04 982.725 641.756C977.765 624.14 960.634 613.427 946.725 601.512C925.632 583.461 894.311 567.942 888.405 537.874C886.59 528.644 887.459 518.698 883.292 510.184C881.246 505.837 878.025 502.13 876.081 497.758C871.991 488.63 873.934 478.122 874.777 468.15C875.621 458.179 874.573 446.75 866.698 440.563C856.701 432.688 842.358 437.725 829.957 440.563C781.225 451.531 754.379 424.711 720.016 395.691C709.916 387.152 699.561 378.433 686.777 374.368C655.048 364.14 622.142 385.847 588.827 387.433C568.373 388.379 548.404 381.654 528.129 378.612C496.859 373.959 465.027 378.203 433.528 379.098C402.028 379.993 368.713 377.078 342.097 359.998C312.541 341.053 295.436 307.482 267.797 285.852C248.059 270.511 223.974 261.741 202.267 249.162C178.898 235.637 157.037 217.023 130.268 213.546C96.7485 209.199 61.056 222.392 26.923 220.731C18.0563 219.955 9.14928 219.741 0.255615 220.091V200.481C24.7496 195.572 51.9537 200.481 77.2147 196.518C88.5924 194.677 99.9189 190.918 111.373 192.171C130.575 194.242 146.529 207.716 165.603 211.066C185.495 214.518 207.304 211.858 226.71 217.713C241.744 222.265 253.709 233.412 265.061 244.202L340.231 315.459C358.128 332.411 367.998 345.45 393.182 351.561C416.04 357.084 441.761 362.146 461.857 350.053C465.816 347.216 470.007 344.719 474.385 342.587C489.266 336.757 505.655 348.237 520.791 348.033C538.836 347.346 556.892 349.065 574.483 353.146C588.009 356.598 604.04 361.123 614.625 352.021C617.379 349.232 619.99 346.305 622.449 343.252C643.389 321.417 683.505 348.161 703.754 358.592C718.2 366.007 733.822 368.819 745.865 381.297C755.299 391.038 762.714 404.307 775.856 407.708C786.083 410.265 796.31 405.841 806.537 404.205C819.883 402.083 833.485 404.691 846.755 407.248C862.531 410.316 879.508 414.049 890.221 426.04C897.226 433.915 900.448 444.347 902.851 454.651C909.448 484.386 913.359 543.984 945.703 559.095C953.373 562.7 963.319 563.748 967.87 570.984C971.654 576.993 970.094 585.098 973.239 591.438C974.839 594.336 976.933 596.932 979.427 599.109C1003.26 622.12 1069.25 676.247 1099.29 631.324C1102.02 627.208 1103.2 622.094 1106.58 618.54C1111.23 613.58 1118.67 612.762 1125.44 612.251C1131.58 611.79 1139.38 612.251 1141.58 618.055C1141.95 619.865 1142.52 621.631 1143.27 623.321C1144.19 624.319 1145.31 625.107 1146.57 625.632C1147.82 626.157 1149.17 626.406 1150.53 626.364L1178.24 629.33C1184.89 630.02 1191.95 630.685 1198.03 627.873C1202.12 626.006 1205.47 622.759 1209.69 621.046C1217.67 618.029 1226.41 621.787 1234.75 623.603C1258.42 628.716 1279.39 588.933 1270.39 568.913C1261.8 549.763 1238.68 539.024 1231.24 519.9C1224.6 502.795 1233.03 477.278 1215.9 464.98C1207.29 458.793 1195.91 460.991 1187.06 455.929C1179.01 451.327 1175.97 441.483 1166.35 438.031C1158.68 435.27 1150.07 437.213 1142.6 434.196C1133.93 430.694 1129.18 421.591 1124.58 413.461C1113.79 394.285 1099.01 400.677 1084.92 387.612C1074.33 377.717 1069.58 362.248 1055.47 355.984C1015.48 338.087 951.992 374.495 921.004 333.357C918.038 329.419 915.609 324.919 911.672 321.902C904.001 315.996 892.113 316.968 885.593 309.809C879.073 302.65 880.888 291.911 875.57 284.241C872.227 280.231 867.976 277.076 863.17 275.037C826.403 255.656 788.282 250.543 750.083 236.173C718.379 224.233 690.791 203.779 664.738 182.481C613.602 140.908 562.058 86.8318 492.539 81.2836C442.4 77.295 387.711 99.7692 343.964 74.815C322.564 62.5936 307.581 40.4007 284.774 31.0429C272.502 25.9293 258.976 25.1623 245.758 24.1395C191.503 19.9976 133.669 10.4608 94.2686 -26.9961C81.6636 -38.9874 71.2575 -53.5866 56.556 -62.7911C39.7324 -73.4528 18.2043 -76.5976 0.306801 -84.6515V-159.565H29.1474C43.8867 -129.725 64.5759 -103.217 89.9424 -81.6715C115.309 -60.126 144.816 -43.9991 176.648 -34.283C218.068 -21.9593 263.579 -20.3996 300.166 2.73929C314.177 11.6113 326.297 23.3981 341.075 31.0429C371.168 46.6648 407.065 42.8296 440.789 44.9006C535.39 50.6789 620.25 104.883 693.553 165.069C711.834 180.078 730.012 195.751 751.566 205.569C794.494 225.051 849.338 220.577 882.831 253.764C894.132 264.912 901.675 279.332 912.388 291.068C935.91 316.814 979.094 332.539 1013.71 330.084C1027.7 329.087 1041.84 326.505 1055.62 329.675C1064.6 331.753 1072.86 336.213 1079.52 342.587C1086.73 349.49 1091.85 358.49 1099.65 364.728C1113.68 376.004 1133.5 376.336 1149.68 384.237C1167.58 393.006 1179.57 410.265 1193.81 424.25C1205.28 435.545 1218.49 444.92 1232.93 452.017C1241.22 456.057 1250.01 459.432 1256.91 465.543C1279.03 485.102 1276.83 520.692 1297.82 540.2C1309.33 550.913 1328.33 553.905 1334.9 568.325C1336.32 571.002 1336.66 574.124 1335.84 577.044C1334.51 580.828 1330.73 583.027 1328.17 585.992C1319.94 595.12 1323.75 609.617 1329.48 620.483C1335.2 631.35 1342.67 642.804 1340.34 654.872C1339.24 660.472 1336.07 666.02 1337.56 671.517C1338.75 674.82 1340.82 677.737 1343.54 679.954C1374.37 709.434 1410.17 753.232 1453.48 763.177C1493.52 772.331 1543.81 739.118 1534.12 699.258C1530.03 682.409 1516.71 669.139 1511.67 652.571C1508.14 640.963 1508.83 628.205 1503.82 617.16C1488.05 582.413 1438.04 589.035 1407.97 578.527C1358.06 560.962 1369.49 499.906 1338.94 461.426C1334.05 455.29 1328.43 449.332 1321.04 446.597C1308.41 441.867 1294.32 447.773 1280.9 446.315C1256.89 443.759 1242.26 419.725 1224.11 403.796C1196.63 379.66 1157.38 372.527 1129.74 348.544C1105.76 327.706 1087.48 293.139 1055.59 292.883C1046.18 292.883 1037.11 296.053 1027.9 297.996C985.077 307.278 937.444 286.696 914.817 249.162C910.138 241.492 906.354 232.875 899.962 226.407C885.158 211.398 861.431 211.552 841.156 205.952C817.557 199.407 797.409 184.271 777.901 169.467L665.147 83.8915C644.181 67.9628 622.985 51.9062 599.054 40.912C569.574 27.3355 537.129 21.9408 505.118 16.6738L388.196 -2.52768C363.983 -6.51625 337.802 -11.5531 321.515 -29.8853C313.104 -39.3965 308.22 -51.6179 299.732 -61.0525C286.615 -75.6517 266.826 -81.7114 249.158 -90.2254C217.838 -105.498 191.639 -129.555 173.759 -159.463H283.394C292.425 -146.41 304.784 -136.011 319.189 -129.344C324.791 -127.26 330.157 -124.586 335.194 -121.367C343.708 -115.052 347.978 -104.697 353.45 -95.6458C360.097 -84.7539 366.668 -83.2454 377.074 -78.4897C385.486 -74.6546 393.259 -68.2625 401.798 -63.8649C415.222 -56.8593 430.076 -52.7685 443.295 -45.3794C456.079 -38.2715 466.92 -28.2489 479.704 -21.2433C534.521 8.77328 614.139 -20.4508 657.886 24.1906C668.726 35.2614 676.115 50.0909 689.462 57.9913C702.067 65.4316 717.586 65.2781 731.623 69.8036C782.759 86.4483 800.886 160.748 853.863 170.592C882.985 176.012 931.513 165.709 944.885 203.958C948.72 214.952 945.217 227.838 950.56 238.168C953.24 242.714 956.773 246.699 960.967 249.903C972.089 259.542 985.998 269.13 1000.32 265.781C1005.05 264.682 1009.44 262.202 1014.28 261.614C1024.32 260.412 1033.27 267.545 1043.04 270.204C1074.13 278.693 1091.08 241.773 1082.11 216.512C1080.14 211.015 1075.25 204.06 1074.08 198.768C1072.34 190.918 1078.6 186.495 1081.21 179.745C1081.93 177.846 1082.26 175.822 1082.18 173.792C1082.1 171.763 1081.62 169.771 1080.75 167.933C1079.38 165.673 1078.13 163.343 1076.99 160.953C1076.4 158.74 1075.99 156.483 1075.77 154.203C1074.75 149.244 1072.12 144.76 1068.29 141.446C1064.46 138.132 1059.65 136.172 1054.6 135.871C1035.91 135.334 1020.05 153.768 1000.39 142.877C991.98 138.274 987.123 129.249 976.819 127.868C968.944 126.82 960.583 130.962 953.271 127.868C948.413 125.823 945.294 121.118 942.583 116.593C928.981 93.9652 925.402 79.4171 927.856 53.1846C931.385 15.5999 946.367 -33.7461 919.598 -65.4246C910.803 -75.8307 900.473 -85.8788 897.405 -99.2508C895.82 -106.18 896.357 -113.518 894.337 -120.344C891.767 -127.436 887.683 -133.884 882.371 -139.239C876.007 -146.454 869.219 -153.284 862.045 -159.693H934.606C939.98 -153.537 944.097 -146.388 946.725 -138.651C950.049 -128.194 949.64 -116.944 951.021 -106.052C954.012 -82.4015 976.282 -67.7001 986.228 -46.351C992.543 -32.8767 992.773 -14.3657 980.731 -5.64703C977.714 -3.4482 974.134 -2.04195 971.194 0.284729C962.807 6.90678 956.134 31.1451 954.523 41.9603C951.967 58.4259 959.637 79.008 974.109 87.9823C978.225 90.5391 983.441 90.7948 987.762 93.0959C995.637 97.11 999.523 106.928 1007.76 110.124C1014.4 112.681 1021.97 110.124 1028.06 106.417C1034.14 102.709 1039.56 97.7493 1046.16 95.0391C1056.39 90.7948 1067.99 92.4823 1078.78 94.8601C1089.01 97.2635 1099.83 100.92 1106.17 109.332C1112.2 117.334 1113.22 128.38 1119.77 135.948C1122.33 139.067 1125.93 141.419 1128.46 144.666C1137.61 156.376 1131.02 173.123 1126.62 187.313C1121.74 203.127 1120 219.743 1121.51 236.225C1122.04 242.156 1123.09 248.318 1126.8 252.972C1130.51 257.625 1135.77 259.9 1140.99 262.202C1152.39 267.315 1164.13 272.25 1176.55 272.812C1189.54 273.375 1202.84 268.977 1215.39 272.429C1231.35 276.801 1241.22 292.295 1249.55 306.562C1259.52 323.59 1270 342.357 1267.88 362.811C1266.2 379.123 1263.92 392.7 1275.55 406.557C1280.07 411.86 1285.78 416.015 1292.22 418.681C1298.65 421.348 1305.63 422.451 1312.58 421.898C1318.58 421.361 1324.67 419.546 1330.47 420.799C1334.1 421.751 1337.55 423.27 1340.7 425.299L1379.36 447.415C1383.88 449.62 1387.9 452.726 1391.17 456.543C1404.29 474.287 1389.05 500.238 1406.51 518.519C1429.09 542.374 1475.8 526.189 1496.89 551.271C1499.68 554.595 1502.29 558.788 1506.58 559.427C1511.26 560.143 1515.2 556.232 1519.37 553.982C1530.06 548.152 1544.07 553.572 1551.81 562.956C1559.56 572.339 1562.53 584.663 1565.29 596.501L1576.31 644.287C1578.99 655.895 1581.73 667.81 1580.19 679.647C1577.18 703.195 1558.13 721.758 1552.22 744.743C1545.83 769.518 1555.6 795.674 1568.87 817.535C1582.14 839.395 1599.06 859.159 1609.34 882.579C1620.72 908.505 1623.79 938.573 1641.3 960.842C1652.47 975.084 1668.43 984.569 1682.62 995.819C1720.97 1026.12 1749.09 1071.37 1795.3 1087.38C1806.52 1091.26 1818.31 1093.21 1829.56 1097.35C1844.81 1102.97 1858.31 1112.49 1868.73 1124.96ZM1247.43 378.689C1248.41 376.599 1248.91 374.311 1248.87 372.001C1248.83 369.691 1248.26 367.422 1247.2 365.368C1245.08 361.275 1242.5 357.433 1239.53 353.913C1236.55 350.373 1234.48 346.161 1233.49 341.641C1232.91 337.857 1233.65 333.97 1233.49 330.161C1232.65 316.201 1218.59 304.874 1205.88 302.241C1192.43 299.428 1177.6 302.241 1165.2 295.107C1159.68 291.937 1154.82 286.849 1148.48 286.338C1141.55 285.826 1135.7 290.428 1129.1 289.431C1125.27 288.818 1122.2 286.056 1118.87 284.139C1115.55 282.221 1110.82 281.275 1108.03 283.985C1107.14 285.026 1106.55 286.287 1106.31 287.636C1106.07 288.984 1106.2 290.373 1106.68 291.656C1107.73 294.203 1109.25 296.535 1111.15 298.533C1120.51 309.604 1130.38 324.306 1142.86 331.976C1151.93 337.499 1163.62 337.371 1173.54 340.72C1188.6 345.834 1198.13 359.589 1209.33 369.97C1216.59 376.822 1239.6 393.083 1247.53 378.791L1247.43 378.689Z" fill="#0064C8" fill-opacity="0.03"/>
<path d="M1715.93 190.969C1717.14 193.144 1717.71 195.609 1717.6 198.091C1717.49 200.573 1716.69 202.976 1715.29 205.032C1713.84 206.73 1712.05 208.116 1710.04 209.104C1708.03 210.093 1705.84 210.665 1703.61 210.785C1699.19 211.296 1694.71 210.785 1690.26 210.785C1680.85 211.04 1669.81 214.185 1662.6 220.475C1655.39 226.764 1652.37 234.128 1642.73 238.142C1627.8 244.381 1607.99 241.466 1597.94 254.122C1592.39 261.153 1591.9 270.843 1588.15 278.974C1582.55 291.144 1569.89 298.917 1556.85 301.985C1543.81 305.053 1530.16 304.056 1516.79 303.059C1513.21 303.105 1509.69 302.224 1506.56 300.502C1503.75 298.313 1501.69 295.314 1500.65 291.911C1498.08 284.968 1497.06 277.547 1497.66 270.168C1498.26 262.789 1500.45 255.629 1504.1 249.187C1507.83 242.792 1512.91 237.289 1518.99 233.062C1525.07 228.836 1531.99 225.988 1539.29 224.719C1556.59 221.83 1566.8 195.086 1581.24 184.194C1594.2 174.376 1611.44 161.567 1628.72 163.51C1639.61 164.927 1649.94 169.206 1658.64 175.91C1665.41 180.742 1673.23 185.447 1681.47 184.296C1684.89 183.811 1688.09 182.328 1691.46 181.535C1695.75 180.543 1700.23 180.71 1704.43 182.021C1709.28 183.395 1713.41 186.605 1715.93 190.969Z" fill="#0064C8" fill-opacity="0.03"/>
<path d="M1586.1 -159.642H1690.6C1686.5 -158.006 1682.36 -156.523 1678.22 -155.117C1656.62 -147.804 1634.01 -142.333 1614.81 -129.932C1601.08 -121.111 1589.68 -109.171 1576.61 -99.4299C1536.5 -69.5155 1484.57 -62.5355 1436.27 -49.1124C1420.93 -44.8682 1404.36 -38.5017 1397.77 -24.1326C1395.7 -19.6071 1394.72 -14.468 1391.45 -10.7095C1387.49 -6.15842 1381.22 -4.75217 1375.42 -2.86015C1359.37 2.50517 1345.66 13.2424 1336.61 27.54C1330.75 36.8467 1327.74 51.855 1315.64 54.8465C1310.35 56.1504 1303.93 53.9003 1301.99 48.8379C1300.53 45.105 1301.71 40.9376 1302.91 37.128C1307.62 21.7873 1312.52 6.24203 1322.34 -6.33734C1328.3 -14.0077 1335.89 -20.2974 1341.72 -28.07C1348.47 -37.0954 1349.14 -44.5357 1348.7 -55.0952C1348.32 -64.5809 1350.03 -73.3507 1350.65 -83.0154C1351.59 -98.2027 1349.55 -113.697 1353 -128.5C1355.84 -140.379 1362.06 -151.184 1370.9 -159.616H1407.13C1400.33 -148.203 1397.79 -134.753 1399.97 -121.648C1401.19 -114.924 1403.65 -108.276 1402.98 -101.475C1402.32 -94.6742 1398.51 -88.2055 1399.43 -81.4556C1400.71 -71.8166 1411.62 -65.7571 1421.32 -66.7031C1431.01 -67.6491 1439.37 -73.7853 1446.5 -80.3818C1453.63 -86.9783 1460.2 -94.4441 1468.72 -99.1997C1493.72 -113.16 1529.34 -100.811 1550.69 -119.91C1558.36 -126.685 1562.53 -136.401 1568.87 -144.353C1573.74 -150.354 1579.56 -155.518 1586.1 -159.642Z" fill="#0064C8" fill-opacity="0.03"/>
<path d="M1673.9 1102.21C1676.66 1111.03 1675.59 1120.1 1675.82 1129.21H1645.42C1645.87 1128.12 1646.23 1127 1646.49 1125.86C1647.57 1119.78 1647.35 1113.54 1645.85 1107.55C1644.96 1103.15 1643.86 1098.73 1642.6 1094.38C1641.17 1089.52 1639.64 1084.72 1637.77 1080.06C1633.99 1070.63 1628.41 1063.16 1624.04 1054.24C1620.21 1045.46 1616.94 1036.44 1614.25 1027.24C1606.58 1005.46 1595.38 983.061 1576.21 970.993C1573.75 969.419 1571.19 968.017 1568.53 966.799C1562.99 964.243 1557.08 962.427 1552.3 958.643C1539.67 948.595 1539.52 930.237 1536.96 914.334C1535.38 905.452 1531.99 896.991 1527 889.478C1522 881.965 1515.52 875.561 1507.94 870.664C1506.35 869.642 1504.72 868.644 1503.06 867.724C1496.81 864.224 1490.04 861.763 1483.01 860.437C1479.05 860.034 1475.07 859.949 1471.1 860.181C1464.22 859.926 1457.57 857.343 1450.64 856.985C1449.01 856.909 1447.37 857.064 1445.78 857.446C1444.86 857.624 1443.99 857.991 1443.21 858.523C1442.44 859.055 1441.78 859.742 1441.28 860.539C1440.83 861.539 1440.59 862.624 1440.59 863.723C1440.59 864.821 1440.83 865.906 1441.28 866.906C1441.61 867.784 1441.99 868.638 1442.43 869.462C1445.17 874.687 1448.76 879.422 1453.05 883.474C1457.9 888.153 1463.53 892.167 1468.39 896.999C1473.22 901.698 1476.97 907.396 1479.38 913.695C1481.97 921.447 1484.02 929.366 1485.54 937.396C1487.75 947.313 1491.26 956.891 1496 965.879C1506.61 985.515 1523.71 1000.52 1534.89 1019.01C1540.18 1028.22 1543.72 1038.32 1545.32 1048.82C1547.16 1059.05 1548.16 1069.66 1551.43 1079.78C1553.74 1087.03 1557.24 1093.84 1561.78 1099.93C1565.12 1104.68 1569.49 1108.6 1574.57 1111.41C1582.78 1115.73 1593.51 1116.09 1601.95 1120.74C1603.29 1121.5 1604.56 1122.35 1605.76 1123.3C1608 1125.12 1610.09 1127.1 1612.03 1129.23H1548.41C1546.6 1126.59 1545.04 1123.78 1543.76 1120.85C1530.59 1090.91 1538.06 1057.74 1515.05 1031.36C1509.01 1024.43 1501.55 1018.17 1498.61 1009.42C1497.33 1005.64 1496.97 1001.6 1495.79 997.788C1493.71 992.205 1490.84 986.945 1487.28 982.166C1477.71 967.512 1469.93 951.76 1464.12 935.249C1460.18 923.999 1457.06 912.238 1450.46 902.292C1441.51 888.792 1396.77 861.383 1403.37 842.131C1404.95 837.477 1411.04 836.148 1415.84 836.531C1425.66 837.273 1434.71 841.364 1444.63 839.855C1450.44 838.986 1455.5 836.301 1461.92 836.097C1475.23 835.761 1488.48 838.046 1500.91 842.821C1525.27 852.102 1547.42 873.502 1551.76 899.709C1554.04 913.465 1554.68 928.371 1563.09 939.467C1572.45 951.765 1588.86 956.087 1601.01 965.623C1631.43 989.478 1627.75 1037.49 1650.33 1068.84C1650.84 1069.56 1651.35 1070.25 1651.89 1070.94C1659.74 1081.06 1670.14 1089.93 1673.9 1102.21Z" fill="#0064C8" fill-opacity="0.03"/>
<path d="M1610.75 1064.06C1613.66 1071.17 1616.86 1078.61 1615.86 1086.2C1614.86 1093.79 1607.91 1101.29 1600.52 1099.57C1593.13 1097.86 1589.94 1088.71 1584.28 1083.31C1578.63 1077.92 1570.09 1076.08 1565.62 1069.74C1563.24 1065.73 1561.84 1061.22 1561.55 1056.57C1560.69 1050.62 1559.83 1044.65 1559 1038.67C1558.27 1030.93 1556.55 1023.32 1553.88 1016.02C1544.04 992.597 1513.87 986.256 1505.1 962.811C1500.37 950.027 1504.28 935.3 1499.3 922.669C1493.75 908.556 1477.74 898.661 1477.54 883.5C1477.45 882.662 1477.54 881.814 1477.8 881.013C1478.06 880.212 1478.49 879.473 1479.05 878.846C1479.98 878.141 1481.1 877.716 1482.27 877.619C1494.72 875.803 1506.74 884.445 1513.23 895.209C1519.73 905.974 1522.03 918.706 1525.1 931.004C1528.16 943.303 1532.48 955.78 1541.77 964.243C1546.88 968.896 1553.12 971.913 1558.95 975.646C1573.99 985.13 1586.4 998.26 1595.02 1013.82C1603.95 1030.13 1603.92 1047.36 1610.75 1064.06Z" fill="#0064C8" fill-opacity="0.03"/>
<path d="M1517.88 1129.21H1474.11C1467.77 1114.86 1462.66 1100.01 1461.99 1084.44C1461.56 1074.49 1462.97 1064.55 1462.45 1054.6C1460.74 1021.57 1438.47 993.467 1428.88 961.788C1424.54 947.445 1422.8 932.309 1417.12 918.323C1409.6 900.42 1395.98 885.762 1378.67 876.954C1361.97 868.517 1342.11 865.653 1328.07 853.278C1319.04 845.327 1312.98 833.821 1302.32 828.171C1294.17 823.85 1284.19 823.569 1276.37 818.609C1263.46 810.427 1261.03 793.041 1258.01 778.058C1254.1 757.859 1245.23 734.03 1228.48 720.99C1216.13 711.392 1200.6 706.825 1185.02 708.207C1170.49 709.485 1158.53 714.317 1145.05 718.434C1133.68 721.834 1120.59 720.99 1111.02 727.97C1098.39 737.303 1097.88 755.635 1098.6 771.436C1099.39 789.614 1100.39 808.484 1108.98 824.515C1113.76 833.412 1120.74 841.134 1124.45 850.517C1132.12 869.949 1124.24 891.63 1123.68 912.519C1122.45 957.314 1155.15 999.117 1148.94 1043.53C1146.72 1059.3 1139.66 1074.06 1136.95 1089.76C1134.55 1103.74 1136.62 1119.95 1146.46 1129.62H1124.75C1114.53 1117.09 1112.17 1099.32 1113.91 1083.06C1115.7 1066 1121.23 1049.54 1123.55 1032.56C1131.07 977.512 1104.79 924.127 1094.99 869.412C1089.47 838.551 1087.91 803.932 1065.67 781.842C1050.33 766.629 1028.47 760.825 1008.29 753.283C982.904 743.771 957.898 729.709 943.146 706.954C935.348 694.937 930.669 680.772 920.927 670.238C914.765 663.565 906.814 658.63 901.087 651.574C895.718 644.926 892.573 636.719 887.485 629.841C881.453 622.127 873.28 616.363 863.989 613.27C854.698 610.178 844.701 609.894 835.25 612.455C825.882 615.312 817.462 620.652 810.885 627.909C804.308 635.165 799.819 644.068 797.895 653.67C794.085 673.204 799.915 696.522 786.211 710.917C780.304 717.104 771.432 720.581 767.52 728.201C764.81 733.468 764.964 739.885 761.998 745.024C756.884 753.922 744.842 755.251 734.666 757.016C686.649 765.069 645.434 804.495 635.309 852.102C632.752 863.633 632.011 875.65 627.306 886.44C619.483 904.337 602.199 916.329 592.227 933.101C584.174 946.652 581.335 962.581 578.625 978.101C573.324 1008.29 568.04 1038.49 562.773 1068.71C560.266 1081.7 558.456 1094.81 557.353 1107.99C556.931 1115.19 556.931 1122.41 557.353 1129.62H522.683C527.541 1104.97 531.657 1080.19 532.373 1055.14C533.345 1021.59 528.717 985.694 545.157 956.521C556.816 936.067 578.139 920.726 584.046 897.945C589.952 875.164 588.162 844.509 605.906 827.225C614.062 819.299 625.491 813.393 628.559 802.45C629.965 797.336 627.767 790.33 622.5 790.203C619.074 790.203 616.031 793.194 612.605 792.759C608.489 792.197 606.878 787.237 603.989 784.245C598.875 779.004 590.131 780.308 583.534 783.274C571.492 788.643 553.62 790.612 546.896 803.447C544.007 808.944 543.418 815.668 539.43 820.449C529.663 832.083 509.566 823.338 496.169 830.497C486.683 835.611 482.976 847.347 482.618 858.06C482.26 868.772 484.331 879.639 482.618 890.198C478.4 914.692 481.391 959.896 462.496 979.174C456.667 985.132 448.357 988.43 443.244 995.027C436.34 1003.95 437.056 1016.32 436.443 1027.6C435.829 1038.88 432.019 1051.97 421.357 1055.72C416.883 1057.26 412.025 1056.77 407.346 1057.49C392.619 1059.66 374.108 1083.31 366.105 1095.23C359.356 1105.27 356.236 1118.75 360.404 1129.72H273.882C278.996 1104.58 303.695 1086.25 327.575 1074.67C346.93 1065.24 368.483 1056.52 379.529 1038.03C384.361 1029.98 386.713 1020.67 391.188 1012.46C400.06 996.203 417.037 984.339 421.23 966.237C428.261 936.144 404.815 912.238 430.767 884.42C438.974 875.574 450.991 867.494 450.479 855.452C450.121 846.784 443.09 839.957 440.252 831.75C438.232 824.908 438.232 817.627 440.252 810.785C446.695 785.421 469.067 769.876 494.789 770.592C503.226 770.848 511.459 773.277 519.819 774.325C549.094 778.032 566.583 749.499 592.534 751.749C597.544 752.621 602.476 753.886 607.287 755.533C617.696 757.805 628.574 756.311 637.985 751.315C647.395 746.32 654.728 738.147 658.678 728.252C663.408 715.289 661.746 700.843 665.147 687.343C668.256 676.012 674.806 665.924 683.892 658.473C692.978 651.022 704.152 646.575 715.873 645.744C736.328 644.696 751.182 644.798 765.807 630.404C772.608 623.679 777.799 615.063 785.725 609.949C798.662 601.256 817.02 602.279 828.167 591.234C839.315 580.188 838.548 562.956 836.63 547.768C833.306 521.536 824.358 490.88 799.173 482.852C790.71 480.142 781.429 480.525 773.069 477.508C759.39 472.548 750.237 459.329 737.069 453.142C719.172 444.705 697.822 450.943 679.848 459.329C661.874 467.716 644.053 478.454 624.162 478.889C588.852 479.656 559.731 447.926 524.447 445.983C503.609 444.832 483.794 454.293 465.181 463.88C456.922 468.074 448.229 472.727 443.474 480.704C439.818 486.789 438.923 494.076 436.494 500.749C425.193 531.763 384.54 540.891 352.12 534.576C333.276 530.894 314.024 521.971 300.831 507.704C295.027 501.414 289.07 493.105 286.845 484.693C284.979 477.508 287.715 469.352 284.723 462.525C280.428 452.656 266.57 452.298 258.414 447.185C248.468 440.997 241.079 430.259 231.823 423.074C219.985 413.87 203.954 411.518 189.074 413.41C165.5 416.401 146.197 430.54 123.237 434.733C100.277 438.926 77.2146 435.065 54.766 432.636C36.8685 430.719 17.7696 429.85 0.35791 433.583V400.856C23.7794 407.43 48.5691 407.35 71.9478 400.626C82.1749 397.66 91.9417 393.467 102.45 392.239C121.191 390.066 139.779 397.609 158.699 397.711C185.188 397.89 213.44 383.828 236.809 396.254C250.13 403.31 258.286 417.577 271.121 425.426C279.737 430.719 290.092 432.892 298.095 439.054C317.68 454.139 316.223 487.122 336.575 501.133C344.501 506.604 354.472 508.138 364.035 508.471C378.608 508.957 394.332 506.528 404.943 496.479C415.554 486.431 417.727 466.923 406.222 457.923C393.284 447.696 372.728 456.057 358.793 447.261C355.256 444.628 351.93 441.721 348.847 438.568C333.353 424.915 310.956 423.228 292.445 414.074C272.348 404.18 257.57 385.95 238.394 374.393C220.343 363.527 199.224 359.052 179.818 350.871C168.952 346.268 158.546 340.49 147.271 336.987C133.029 332.564 117.944 331.874 103.038 331.337C81.5867 330.493 59.931 329.649 38.7352 333.254C25.2949 335.399 12.3226 339.836 0.383503 346.371V319.576C40.1159 298.738 88.9249 295.056 133.336 304.567C189.585 316.559 239.877 347.061 286.513 380.529C304.922 393.748 323.356 407.734 344.884 414.714C404.176 433.992 467.61 395.947 529.74 402.16C566.89 405.867 602.199 425.426 639.4 422.409C657.093 420.978 674.505 414.432 692.121 416.503C720.424 419.827 741.543 444.142 768.339 453.858C786.492 460.429 807.202 460.327 823.463 470.758C865.547 497.835 846.346 556.692 883.777 583.257C894.848 591.106 911.748 595.452 913.257 608.824C913.717 612.864 912.49 616.955 912.669 621.02C913.231 633.421 925.734 641.193 933.839 650.602C944.91 663.386 948.489 681.054 957.873 695.141C968.483 711.096 986.227 721.553 1004.99 725.414C1031.02 730.783 1058 722.857 1082 713.192C1093.55 708.793 1104.48 702.905 1114.5 695.678C1124.32 688.417 1134.96 680.107 1148.12 682.588C1152.57 683.457 1156.84 685.579 1161.37 685.375C1166.86 685.119 1171.59 681.539 1176.4 678.931C1207.67 662.21 1239.27 699.386 1259.19 719.073C1268.29 728.149 1277.6 737.456 1282.97 749.115C1287.08 757.987 1288.69 767.78 1292.22 776.907C1299.89 796.39 1315.23 810.708 1332.06 822.316C1352.03 836.071 1370.26 852.077 1391.17 864.656C1400.2 870.102 1409.71 875.216 1416.74 883.065C1422.64 890.195 1427.17 898.351 1430.11 907.124C1441.05 935.735 1446.24 966.8 1461.92 993.109C1468.39 1004 1476.64 1014.05 1480.38 1026.14C1483.93 1037.67 1483.27 1050.82 1490.12 1060.76C1494.34 1066.9 1501.16 1071.37 1503.52 1078.43C1508.07 1092.08 1494.39 1106.55 1505.79 1118.37C1508.86 1121.51 1513.26 1122.38 1516.02 1126.04C1516.75 1127.02 1517.38 1128.09 1517.88 1129.21Z" fill="#0064C8" fill-opacity="0.03"/>
<path d="M1492.42 681.565C1496.82 697.187 1495.82 716.644 1482.7 726.156C1469.59 735.667 1450.85 730.553 1436.27 723.164C1420.45 715.132 1405.83 704.945 1392.81 692.892C1386.49 687.037 1380.36 680.363 1378.21 672.028C1377.03 667.426 1377.16 662.543 1376.09 657.889C1374.17 649.554 1368.67 642.549 1364.96 634.878C1350.85 605.603 1389.99 590.493 1411.39 605.271C1419.24 610.691 1425.28 619.461 1434.58 621.43C1441.77 622.938 1449.03 619.947 1456.24 618.464C1463.45 616.981 1472.4 617.85 1476.03 624.242C1477.53 627.701 1478.27 631.441 1478.2 635.211C1479.61 651.344 1488.02 665.969 1492.42 681.565ZM1469.41 697.75C1470.2 695.271 1470.35 692.631 1469.84 690.079C1468.16 680.466 1461.41 672.437 1458.95 662.977C1457.08 655.742 1457.03 646.639 1450.49 642.983C1442.31 638.458 1432.05 647.125 1423.08 644.492C1416.1 642.446 1401.7 631.12 1398.36 645.617C1397.78 649.473 1398.69 653.404 1400.91 656.611C1402.88 659.909 1405.41 662.875 1407.15 666.327C1409.27 670.545 1410.09 675.301 1412.26 679.571C1416.79 689.159 1433.18 697.468 1442.28 701.84C1446.85 704.371 1451.97 705.741 1457.19 705.829C1459.79 705.789 1462.33 705.008 1464.5 703.577C1466.67 702.146 1468.39 700.124 1469.46 697.75H1469.41Z" fill="#0064C8" fill-opacity="0.03"/>
<path d="M1469.89 689.951C1470.4 692.504 1470.25 695.143 1469.46 697.622C1468.37 699.988 1466.62 701.994 1464.43 703.402C1462.24 704.811 1459.69 705.564 1457.08 705.573C1451.86 705.485 1446.75 704.116 1442.18 701.585C1433.08 697.213 1416.61 688.801 1412.16 679.315C1410.12 675.045 1409.3 670.29 1407.05 666.071C1405.31 662.619 1402.78 659.653 1400.81 656.355C1398.59 653.149 1397.68 649.217 1398.25 645.361C1401.6 630.864 1416 642.191 1422.98 644.236C1431.95 646.793 1442.2 638.202 1450.39 642.728C1456.93 646.384 1456.98 655.512 1458.85 662.722C1461.46 672.412 1468.16 680.338 1469.89 689.951Z" fill="#0064C8" fill-opacity="0.03"/>
<path d="M1437.19 1055.78C1438.26 1061.79 1438.5 1067.92 1437.91 1074.01C1437.19 1081.32 1435.35 1088.55 1434.28 1095.82C1434.1 1097.27 1433.95 1098.73 1433.84 1100.19C1433.09 1109.96 1434.1 1119.79 1436.81 1129.21H1414.8C1411.47 1121.08 1413.21 1111.31 1416.1 1102.64C1419.47 1092.59 1424.23 1082.52 1423.34 1071.96C1422.54 1063.01 1417.79 1055.01 1414.39 1046.7C1405.85 1025.99 1405.57 1002.98 1404.16 980.607C1403.11 963.578 1400.43 944.812 1387.34 933.792C1375.19 923.565 1356.88 922.926 1345.56 911.855C1343.03 908.862 1340.25 906.09 1337.25 903.571C1329.32 898.074 1318.28 900.605 1309.35 897C1300.43 893.395 1294.52 883.525 1285.75 878.719C1274.07 872.301 1258.96 875.727 1246.97 869.821C1231.22 862.151 1228.87 836.583 1212.32 832.799C1210.47 832.535 1208.66 832.072 1206.9 831.418C1196.45 826.509 1188.34 818.967 1184.84 834.716C1181.16 851.233 1192.71 875.369 1201.61 888.409C1205.27 893.804 1209.54 898.969 1211.28 905.233C1214.86 918.017 1207.03 931.721 1209.64 944.735C1211.17 952.405 1216.13 958.874 1218.79 966.212C1223.91 980.658 1219.92 996.612 1219.74 1011.98C1219.38 1040.1 1232.22 1066.49 1245.84 1091.03C1252.99 1103.9 1260.43 1116.59 1268.19 1129.1H1229.84C1222.6 1119.54 1219.48 1106.27 1218.08 1094.64C1217.39 1088.84 1216.95 1083.26 1216.31 1077.84C1215.58 1071.52 1214.43 1065.25 1212.89 1059.07C1211.84 1054.83 1210.53 1050.53 1209.2 1046.09C1204.09 1028.93 1200.69 1011.44 1196.04 994.183C1194.35 988.021 1190.39 983.215 1189.7 976.797C1188.83 968.666 1191.74 960.408 1192.25 952.328C1193.94 923.539 1169.52 899.71 1164.36 871.33C1161.8 856.858 1164.18 841.517 1159.48 827.583C1156.92 820.194 1152.55 813.597 1149.81 806.285C1145.95 795.865 1145.62 784.462 1148.89 773.839C1153.31 759.598 1167.3 748.988 1182.74 755.942C1191.26 759.726 1198.08 768.419 1207.47 767.984C1209.5 767.687 1211.55 767.516 1213.6 767.473C1220.25 768.036 1223.83 775.425 1225.9 781.714C1230.2 794.191 1233.85 807.564 1239.22 819.555C1245.95 834.589 1261.03 844.892 1277.11 848.472C1283.81 849.955 1290.94 850.492 1296.83 854.02C1307.05 860.182 1310.91 873.835 1321.19 879.92C1330.42 885.392 1343.36 883.781 1350.9 891.452C1353.74 894.341 1355.45 898.304 1358.73 900.682C1363.84 904.466 1371 903.238 1377.31 904.133C1387.36 905.616 1395.72 913.082 1400.84 921.852C1405.95 930.622 1408.35 940.67 1410.65 950.564C1415.15 969.689 1419.64 988.814 1424.1 1007.94C1427.91 1023.97 1434.38 1039.72 1437.19 1055.78Z" fill="#0064C8" fill-opacity="0.03"/>
<path d="M1395.7 1044.32C1398.89 1056.62 1405.13 1068.61 1403.88 1081.27C1402.86 1091.49 1396.97 1100.65 1392.42 1109.95C1389.28 1115.92 1387.42 1122.48 1386.95 1129.21H1299.84C1294.14 1114.43 1288.06 1099.42 1277.34 1087.79C1270.52 1080.37 1262 1074.52 1256.15 1066.31C1240.19 1043.86 1249.17 1012.87 1244.54 985.746C1240.78 963.655 1227.61 941.845 1233.65 920.266C1237.79 905.513 1249.5 898.048 1264.33 903.571C1272 906.434 1279.67 911.062 1287.9 910.321C1290.77 910.065 1293.55 909.144 1296.42 908.991C1305.75 908.454 1307.36 914.769 1313.01 919.729C1318.25 923.848 1324.25 926.882 1330.68 928.652C1343.72 932.999 1358.03 934.175 1369.54 942.357C1384.29 952.891 1389.99 972.195 1391.35 990.246C1392.7 1008.3 1391.17 1026.78 1395.7 1044.32ZM1345.12 1041.15C1345.12 1023.64 1365.42 1008.71 1359.98 992.061C1356.45 981.246 1343.87 976.72 1336.15 968.308C1334.27 965.819 1332.07 963.592 1329.6 961.686C1326.93 960.268 1324 959.398 1320.99 959.129C1308.2 957.11 1283.66 947.624 1274.96 961.2C1265.07 976.848 1279.18 997.302 1286.42 1010.52C1292.23 1021.18 1296.64 1032.54 1299.54 1044.32C1301.4 1051.99 1302.65 1059.66 1305.85 1066.72C1309.05 1073.78 1314.6 1080.32 1322.09 1082.37C1334.87 1085.87 1348.6 1073.24 1348.04 1059.94C1347.99 1053.55 1345.15 1047.49 1345.12 1041.15Z" fill="#0064C8" fill-opacity="0.03"/>
<path d="M1241.57 -159.642V-159.054C1240.58 -151.384 1240.99 -143.202 1237.28 -136.401C1227.2 -117.915 1219.38 -101.066 1216.82 -78.8988C1215.8 -70.5382 1216.41 -61.973 1214.7 -53.7402C1213.18 -46.74 1210.04 -40.1934 1205.54 -34.6255C1201.03 -29.0576 1195.28 -24.6231 1188.75 -21.678C1185.15 -20.0673 1181.08 -18.8145 1178.68 -15.7719C1173.56 -9.48219 1177.88 -0.124466 1176.38 7.77599C1174.69 16.5969 1165.46 22.5543 1156.48 22.8867C1147.51 23.2191 1138.89 19.077 1131.56 13.8867C1121.33 6.62547 1112.23 -3.55045 1110.05 -15.9253C1108.26 -26.1524 1111.1 -37.658 1105.42 -46.3511C1101.1 -53.0243 1092.9 -56.0413 1087.53 -61.8452C1074.05 -76.1631 1082.06 -99.8389 1076.1 -118.58C1071.34 -133.614 1057.51 -146.066 1050.53 -159.642H1103.3C1106.88 -152.837 1108.77 -145.267 1108.8 -137.577C1108.8 -128.424 1106.24 -119.45 1105.76 -110.322C1105.27 -101.194 1107.62 -91.0181 1115.04 -85.6744C1117.88 -83.6034 1121.3 -82.3762 1123.96 -80.1006C1129.89 -74.9871 1130.61 -66.294 1132.99 -58.8282C1134.45 -53.8936 1136.94 -49.3284 1140.31 -45.4389C1143.68 -41.5494 1147.84 -38.4256 1152.52 -36.2773C1157.26 -34.2481 1162.48 -33.6366 1167.56 -34.517C1172.64 -35.3974 1177.35 -37.7319 1181.13 -41.2375C1195.24 -55.5555 1185.73 -80.7398 1194.4 -98.8929C1198.08 -106.563 1204.76 -112.367 1209.51 -119.347C1217.46 -131.185 1219.74 -146.04 1224.24 -159.54L1241.57 -159.642Z" fill="#0064C8" fill-opacity="0.03"/>
<path d="M1199.16 514.505C1202.48 516.831 1205.19 519.918 1207.07 523.508C1208.95 527.098 1209.95 531.085 1209.97 535.138C1209.97 542.808 1206.39 550.198 1206.16 557.919C1206.3 560.482 1206.17 563.052 1205.78 565.589C1204.45 571.163 1198.88 574.896 1193.22 575.816C1184.63 577.12 1177.14 572.595 1168.53 574.257C1161.47 575.638 1155.26 580.93 1149.32 584.637C1126.31 599.032 1093.94 578.757 1067.51 585.098C1057.54 587.475 1048.31 593.356 1038.03 593.433C1017.11 593.586 1005.12 574.129 994.563 558.737C987.327 548.075 979.222 534.294 969.302 526.087C963.728 521.536 956.85 518.724 951.609 513.789C925.887 489.551 954.166 454.139 929.339 427.574C912.221 409.342 891.138 395.292 867.721 386.512C849.823 379.839 830.622 376.285 814.565 366.058C810.529 362.992 806.078 360.513 801.347 358.695C796.989 357.76 792.525 357.424 788.077 357.697C773.915 357.473 759.966 354.215 747.171 348.141C734.376 342.068 723.032 333.321 713.905 322.491C710.223 318.016 706.797 312.545 707.692 306.817C708.689 300.553 714.569 296.207 720.476 294.034C726.382 291.86 732.902 291.17 738.654 288.485C748.396 283.934 756.552 273.733 767.137 274.807C776.981 275.804 782.938 285.801 790.787 291.835C805.514 303.136 826.582 300.016 844.019 306.434C871.53 316.661 886.513 347.956 913.462 358.26C918.192 360.075 923.305 360.587 928.137 362.121C944.731 367.413 955.802 384.186 972.498 389.069C994.46 395.512 1020.51 379.839 1039.87 392.061C1055.01 401.597 1058.84 424.736 1075.66 431.103C1085.89 434.963 1098.55 431.512 1106.93 438.389C1110.92 441.637 1113.02 446.597 1115.83 450.918C1129.08 471.372 1152.19 470.835 1168.19 486.227C1175.86 493.59 1180.98 503.511 1190.05 509.238C1192.92 511.13 1196.24 512.511 1199.16 514.505ZM1176.15 536.544C1177.86 523.096 1165.02 512.306 1152.52 507.116C1140.02 501.925 1125.7 498.934 1116.73 488.784C1108.31 479.221 1105.91 464.571 1095.25 457.642C1087.76 452.784 1078.12 453.065 1069.68 449.972C1056.13 445.191 1047.18 432.611 1036.01 423.586C1028.52 417.552 1018.49 410.597 1008.55 411.262C1002.49 411.697 996.48 413.435 990.446 412.668C985.512 412.055 980.858 409.779 975.873 409.6C972.121 409.551 968.448 410.682 965.374 412.834C962.3 414.986 959.98 418.049 958.742 421.591C956.518 428.367 958.742 435.807 961.58 442.301C964.418 448.796 968.305 455.085 969.583 462.091C970.733 468.329 969.839 474.875 970.708 481.088C971.91 489.934 978.097 495.048 985.128 499.727C991.52 503.997 999.242 506.068 1005.35 510.746C1016.53 519.286 1020 534.448 1028.36 545.672C1033.26 552.011 1039.7 556.995 1047.07 560.153C1054.43 563.312 1062.48 564.54 1070.45 563.723C1082.16 562.419 1092.97 556.692 1104.66 555.26C1118.13 553.624 1131.66 557.817 1145.23 557.536C1158.81 557.254 1174.48 549.993 1176.17 536.544H1176.15Z" fill="#0064C8" fill-opacity="0.03"/>
<path d="M1119.74 509.724C1124.17 515.476 1125.11 524.579 1119.9 529.616C1116.72 532.184 1112.92 533.853 1108.88 534.448C1091.34 538.615 1071.42 542.399 1056.49 532.3C1045.14 524.63 1040.12 511.36 1031.82 501.005C1024.14 491.596 1006.45 486.176 1005.22 473.136C1004.88 470.775 1005.11 468.365 1005.89 466.111C1006.68 463.857 1007.99 461.824 1009.73 460.186C1011.46 458.548 1013.57 457.353 1015.86 456.701C1018.16 456.049 1020.58 455.959 1022.92 456.44C1030.31 457.847 1035.5 464.264 1042.89 465.875C1050.27 467.486 1058.58 464.571 1065.9 468.048C1073.72 471.756 1076.79 481.216 1082.87 487.403C1087.99 492.517 1094.97 495.278 1101.69 498.039C1108.42 500.801 1115.32 503.971 1119.74 509.724Z" fill="#0064C8" fill-opacity="0.03"/>
<path d="M1094.05 1012.9C1094.71 1025.55 1101.72 1037.67 1099.95 1050.23C1098.8 1059.07 1093.59 1066.74 1090.06 1074.93C1082.8 1091.83 1082.85 1110.72 1084.23 1129.21H1064.18C1061.76 1118.87 1061.25 1108.18 1062.68 1097.66C1063.55 1090.94 1064.79 1084.27 1066.41 1077.69C1068.27 1069.76 1070.47 1061.86 1072.06 1053.86C1075.15 1039.66 1075.56 1025 1073.26 1010.65C1072.16 1004.26 1070.35 997.865 1069.89 991.473C1069.17 981.45 1071.52 972.757 1072.16 963.348C1073.26 947.573 1069.6 929.778 1064.49 913.67C1060.4 900.886 1054.42 889.201 1049.15 877.031C1041.05 858.443 1033.14 839.139 1017.73 825.665C1006.89 816.205 992.747 811.45 979.145 806.208C962.041 799.637 945.012 790.995 933.507 777.598C927.345 770.413 922.845 762.078 916.095 755.277C911.8 750.931 906.737 747.351 902.902 742.493C900.154 738.697 897.685 734.706 895.513 730.553C894.976 729.633 894.414 728.712 893.826 727.817C890.547 722.729 886.151 718.456 880.971 715.323C875.792 712.191 869.966 710.282 863.937 709.741C858.121 709.33 852.295 710.378 846.986 712.789C841.677 715.2 837.054 718.898 833.537 723.547C829.395 729.275 826.966 736.331 823.309 743.439C821.068 747.969 818.028 752.057 814.335 755.507C809.708 759.7 803.699 762.743 800.298 767.984C797.946 771.615 797.077 775.885 794.699 779.567C790.583 785.958 783.142 788.541 776.802 791.686C759.24 800.524 743.768 813.011 731.422 828.312C719.076 843.612 710.14 861.373 705.212 880.406C701.862 892.832 699.101 907.176 688.107 913.823C684.242 915.747 680.273 917.455 676.218 918.937C656.479 928.013 650.087 952.379 645.997 973.677C644.283 982.549 643.005 993.007 649.346 999.424C653.028 1003.18 658.781 1004.79 661.593 1009.27C664.15 1013.23 663.562 1018.34 662.948 1023C659.394 1049.72 651.877 1078.4 651.724 1105.12C651.651 1113.2 652.509 1121.25 654.281 1129.13H605.702C604.741 1121.57 604.408 1113.94 604.705 1106.32C604.884 1101.47 605.293 1096.61 605.83 1091.83C606.75 1083.95 608.003 1076.1 609.179 1068.25C611.046 1055.67 612.733 1043.12 613.5 1030.72C614.241 1018.75 614.19 1007.09 615.034 995.078C615.366 990.501 615.852 985.873 616.44 981.246C618.383 966.237 621.554 950.871 629.224 937.78C638.122 922.44 652.823 911.036 660.545 895.184C665.198 885.622 666.962 875.165 669.954 865.091C676.406 844.221 687.598 825.128 702.655 809.302C717.689 793.194 735.714 780.257 755.836 774.197C764.018 771.641 773.733 769.8 778.387 762.129C780.944 757.732 781.404 752.388 783.961 747.939C787.617 741.522 795.057 738.249 800.324 733.059C804.599 728.652 807.649 723.206 809.171 717.258C811.983 707.721 812.52 697.392 815.793 688.469C818.497 681.307 823.044 674.987 828.975 670.147C834.906 665.307 842.009 662.119 849.568 660.906C857.378 659.865 865.324 660.965 872.556 664.091C879.789 667.216 886.036 672.249 890.63 678.65C891.397 679.724 892.112 680.849 892.803 682C895.525 687.146 898.583 692.109 901.956 696.855C906.737 702.786 913.232 707.082 918.473 712.528C926.706 721.221 931.257 732.471 938.288 742.059C951.404 760.161 972.447 771.487 993.694 779.515C1010.57 785.933 1028.52 791.277 1041.66 803.549C1060.68 821.447 1073.26 851.361 1075.08 877.057C1075.97 889.483 1074.67 902.139 1077.25 914.335C1081.85 936.067 1098.39 954.86 1098.42 977.078C1098.39 989.121 1093.41 1000.86 1094.05 1012.9Z" fill="#0064C8" fill-opacity="0.03"/>
<path d="M1049.05 935.965C1054.9 950.564 1057.84 967.694 1053.52 981.987C1050.97 990.475 1045.85 997.814 1045.62 1007.15C1045.62 1013.1 1047.44 1018.98 1048.56 1024.89C1051.12 1038.19 1049.35 1051.51 1046.21 1064.83C1044.47 1072.19 1042.27 1079.5 1040.48 1086.79C1038.96 1092.88 1037.78 1099.05 1036.95 1105.28C1035.87 1113.25 1035.66 1121.32 1036.34 1129.33H1012.51C1013.02 1118.86 1014.59 1108.47 1017.19 1098.32C1021.97 1079.55 1030.36 1060.56 1026.45 1041.59C1023.51 1027.22 1016.68 1020.16 1024.17 1004.95C1028.41 996.356 1034.22 987.816 1033.91 978.229C1033.63 969.05 1027.75 961.022 1021.36 954.425C1014.97 947.829 1007.7 941.845 1003.46 933.766C991.316 911.343 995.227 889.074 971.986 872.557C949.589 856.679 915.277 855.043 903.081 830.447C899.834 823.901 898.683 816.41 894.848 810.171C886.82 797.208 868.462 793.501 854.17 798.794C830.545 807.538 804.543 821.447 795.364 846.657C790.659 859.747 789.918 875.088 780.202 885.008C773.401 891.963 763.225 895.031 757.191 902.548C751.157 910.065 750.16 920.266 746.427 929.113C741.799 940.03 733.004 948.646 727.302 959.027C723.065 966.863 720.637 975.548 720.194 984.446C719.752 993.343 721.307 1002.23 724.745 1010.44C728.478 1019.19 734.333 1027.04 736.916 1036.19C738.551 1043.02 739.069 1050.06 738.45 1057.05C737.248 1081.09 732.288 1106.55 737.504 1129.31H703.422C700.639 1121.19 699.171 1112.68 699.075 1104.1C698.963 1099.58 699.083 1095.06 699.433 1090.55C699.996 1083.24 700.916 1075.85 701.607 1068.51C703.099 1056.87 702.909 1045.07 701.044 1033.48C698.896 1022.56 694.345 1012.59 692.581 1001.55C691.897 997.321 691.615 993.041 691.737 988.762C692.294 974.519 696.182 960.604 703.089 948.135C709.839 935.863 719.402 925.431 726.919 913.67C731.444 906.587 735.1 899.275 739.14 892.065C747.398 877.261 757.37 862.866 767.06 848.753C776.75 834.64 786.031 820.194 798.074 809.583C802.318 805.85 807.483 802.526 811.062 797.387C813.159 794.447 814.514 791.251 816.687 788.439C820.186 784.635 824.125 781.261 828.423 778.39C831.598 775.77 834.628 772.979 837.5 770.03C841.548 765.656 846.259 761.946 851.459 759.036C855.596 757.005 860.136 755.932 864.744 755.897C869.352 755.861 873.909 756.864 878.076 758.831C886.008 762.979 892.524 769.397 896.791 777.265C897.2 777.956 897.584 778.672 897.993 779.388C899.608 782.545 901.48 785.564 903.592 788.413C906.639 791.907 909.946 795.163 913.487 798.154C918.601 803.115 923.126 808.56 928.47 813.29C938.339 822.009 951.481 827.941 964.265 833.054C974.492 837.12 985 841.185 993.438 847.961C1009.98 861.256 1018.7 881.378 1029 899.71C1035.8 911.65 1043.86 922.976 1049.05 935.965Z" fill="#0064C8" fill-opacity="0.03"/>
<path d="M1012.33 180.461C1017.45 189.205 1021.69 200.481 1018.42 210.555C1017.74 212.72 1016.56 214.693 1014.97 216.307C1013.48 217.746 1011.69 218.84 1009.74 219.511C1007.78 220.183 1005.7 220.416 1003.64 220.194C987.813 218.481 971.731 213.623 961.682 200.404C957.643 195.086 954.728 188.822 949.742 184.347C946.283 181.523 942.455 179.184 938.365 177.393L905.459 161.183C900.598 158.638 895.536 156.501 890.323 154.791C880.096 151.774 869.255 152.081 859.207 148.808C850.795 146.068 843.36 140.942 837.806 134.056C833.076 128.149 829.829 121.067 824.639 115.57C813.185 103.4 795.389 101.022 782.708 90.6159C767.878 78.42 757.6 61.5708 741.288 50.9346C739.166 49.5284 736.963 48.2478 734.691 47.0994C723.646 41.4489 711.246 38.6364 700.763 31.7587C689.513 24.344 681.817 13.0431 673.942 2.3813C667.333 -7.10713 659.305 -15.5235 650.139 -22.5729C637.312 -31.4749 622.555 -37.2056 607.082 -39.2942C582.742 -43.0271 557.251 -40.2147 534.776 -46.5044C525.537 -49.2496 516.648 -53.0592 508.288 -57.8565C505.987 -59.1093 503.686 -60.4133 501.385 -61.7173C490.084 -68.0581 478.757 -74.0921 467.712 -80.9443C463.391 -83.6289 459.147 -86.5437 454.775 -89.1005C452.066 -90.6891 449.256 -92.0983 446.363 -93.3191C437.823 -96.8986 431.15 -98.4327 424.145 -104.543C420.514 -107.637 416.934 -110.756 413.176 -113.85C410.289 -116.291 407.211 -118.497 403.972 -120.446C399.6 -123.003 394.767 -124.972 390.191 -127.273C375.937 -134.443 364.15 -145.705 356.339 -159.616H430.639C438.309 -138.088 459.53 -122.441 481.953 -116.151C495.607 -112.367 510.078 -111.319 522.862 -104.799C538.203 -96.7963 549.222 -81.3277 565.407 -74.9102C592.228 -64.2995 623.42 -82.0437 651.059 -73.7598C657.572 -71.7438 663.581 -68.3639 668.686 -63.8452C673.791 -59.3265 677.875 -53.7726 680.667 -47.5527C684.63 -38.4762 685.78 -28.3002 689.82 -19.4281C699.894 2.43236 725.052 12.2505 742.515 28.7929C753.33 39.02 761.231 52.0596 771.739 62.6447C784.216 75.1985 796.284 79.2126 812.98 77.4996C824.537 76.3235 833.076 75.761 841.105 86.0137C845.886 92.1756 849.056 99.5901 854.477 105.241C859.897 110.891 868.948 114.292 875.519 110.099C881.118 106.519 882.652 98.8487 881.502 92.2011C880.351 85.5535 877.079 79.7495 875.059 73.4342C872.502 65.4059 871.939 56.7641 868.564 49.0426C864.192 39.0711 855.499 31.4008 851.562 21.2504C845.349 5.21933 852.38 -12.1668 848.059 -28.4279C843.738 -44.689 839.519 -61.257 833 -77.0068C829.19 -86.2112 824.741 -95.518 817.224 -102.038C810.653 -107.714 802.242 -110.808 795.236 -115.947C781.225 -126.174 774.424 -143.125 769.259 -160H811.062C817.042 -150.2 824.473 -141.364 833.102 -133.793C838.215 -129.523 843.943 -126.123 848.903 -121.546L850.36 -120.191C856.374 -114.192 860.939 -106.898 863.707 -98.8672C865.752 -93.0633 866.417 -86.8505 868.079 -80.7909C871.275 -69.2087 877.615 -58.9304 881.86 -48.6521C882.218 -47.7573 882.576 -46.8624 882.883 -46.0954C888.533 -29.7575 887.996 -11.681 887.638 7.31587C887.408 24.1139 888.124 41.2956 891.499 55.0255C896.612 76.0423 908.502 92.4056 915.328 112.655C915.842 114.481 916.654 116.209 917.731 117.769C921.004 121.936 927.192 121.783 932.228 123.368C942.149 126.436 948.362 136.664 958.052 140.345C966.745 143.644 977.995 141.7 984.131 148.68C987.327 152.337 988.171 157.629 991.341 161.311C997.887 169.441 1006.86 171.027 1012.33 180.461Z" fill="#0064C8" fill-opacity="0.03"/>
<path d="M1008.91 977.078C1010.9 991.038 997.963 1002.88 996.301 1016.86C994.921 1028.62 1001.65 1039.72 1003.69 1051.38C1008.29 1077.64 989.04 1103.41 987.02 1129.21H955.776C956.588 1126.63 957.136 1123.97 957.413 1121.28C958.231 1113.61 957.208 1104.61 962.526 1098.99C964.708 1097.05 967.081 1095.33 969.609 1093.87C976.851 1088.21 981.741 1080.07 983.339 1071.01C986.995 1053.81 984.31 1035.22 979.836 1018.52C977.995 1011.59 975.464 1003.95 969.097 1000.63C960.737 996.203 949.998 1002.11 945.447 1010.42C940.896 1018.73 940.666 1028.6 939.669 1038.01C938.812 1050.01 935.32 1061.67 929.442 1072.16C922.666 1083.39 912.209 1091.8 903.311 1101.44C896.05 1109.31 889.556 1118.9 887.971 1129.26H789.662C786.62 1122.51 783.603 1115.73 780.56 1108.96C775.626 1097.99 770.665 1086.84 769.131 1074.9C767.239 1060.25 770.665 1045.17 767.546 1030.72C765.782 1022.54 761.972 1014.92 760.08 1006.76C757.156 993.901 759.096 980.412 765.526 968.896C768.083 964.422 771.305 960.152 772.404 955.115C772.907 950.873 773.052 946.597 772.839 942.331C773.861 918.348 799.506 903.596 810.117 882.068C817.506 867.136 819.193 846.861 834.329 839.855C845.656 834.742 858.849 840.009 870.124 845.327C876.388 848.293 882.908 851.438 887.101 856.909C890.527 861.384 892.215 867.009 895.385 871.611C909.166 891.068 942.43 882.503 959.816 898.815C972.217 910.448 972.063 930.519 982.188 944.172C990.983 955.627 1006.89 962.862 1008.91 977.078ZM946.214 959.896C948.055 946.064 948.541 929.215 936.856 921.544C930.158 917.198 921.516 917.556 913.845 915.383C894.03 909.758 882.422 888 862.965 881.173C826.173 868.261 797.895 914.411 799.915 945.936C800.503 955.345 803.085 964.55 803.264 974.061C803.674 995.512 791.58 1015.86 792.654 1037.32C793.507 1049.03 798.181 1060.15 805.958 1068.96C813.735 1077.76 824.187 1083.78 835.71 1086.07C854.835 1089.45 882.371 1083.52 891.576 1064.14C899.246 1048.16 883.675 1026.14 899.476 1013.77C908.706 1006.56 922.487 1008.65 931.717 1000.98C943.223 991.396 944.424 973.422 946.214 959.896Z" fill="#0064C8" fill-opacity="0.03"/>
<path d="M851.818 952.891C851.178 951.127 850.514 949.388 849.849 947.624C850.36 949.056 851.102 951.101 851.818 952.891ZM853.582 957.519C853.403 957.084 853.224 956.598 853.045 956.087C853.198 956.573 853.377 957.033 853.582 957.519ZM908.143 943.738C913.743 953.172 907.172 965.47 898.53 972.195C886.13 981.859 865.292 989.478 864.627 1007.99C864.397 1014.87 867.44 1021.51 867.44 1028.44C867.272 1033.64 865.499 1038.66 862.362 1042.81C859.226 1046.96 854.881 1050.03 849.926 1051.61C844.922 1053 839.626 1052.95 834.649 1051.46C829.672 1049.97 825.218 1047.11 821.801 1043.2C818.478 1039.2 816.226 1034.42 815.255 1029.31C814.285 1024.21 814.628 1018.94 816.253 1014C819.551 1003.92 827.886 995.41 828.219 984.8C828.551 974.956 821.827 966.263 820.165 956.547C817.787 942.664 827.017 931.363 837.346 923.309C845.017 917.403 855.653 914.002 864.371 918.195C869.485 920.599 873.039 925.15 877.769 928.116C887.587 934.226 902.186 933.741 908.22 943.738H908.143Z" fill="#0064C8" fill-opacity="0.03"/>
<path d="M853.582 957.518C853.377 957.033 853.198 956.572 853.045 956.086C853.224 956.598 853.403 957.084 853.582 957.518Z" fill="#0064C8" fill-opacity="0.03"/>
<path d="M849.849 947.624C850.514 949.388 851.178 951.127 851.818 952.891C851.102 951.101 850.36 949.056 849.849 947.624Z" fill="#0064C8" fill-opacity="0.03"/>
<path d="M813.619 -4.64995C816.176 4.22209 814.335 15.8042 805.949 19.4093C799.148 22.2473 791.503 18.719 784.983 15.2673C764.094 4.22203 742.08 -7.94823 730.728 -28.6582C724.413 -40.1893 721.422 -54.2259 711.195 -62.4844C706.822 -65.4837 702.261 -68.1994 697.541 -70.6149C687.314 -76.8023 679.797 -86.3646 670.133 -93.268C656.352 -103.137 639.144 -107.075 622.244 -108.609C609.844 -109.836 597.315 -109.964 585.068 -112.342C571.088 -115.189 557.828 -120.836 546.087 -128.943C534.346 -137.05 524.367 -147.449 516.751 -159.514H573.767C573.499 -157.345 573.55 -155.149 573.921 -152.995C577.194 -134.509 605.727 -127.938 621.375 -125.484C642.852 -122.109 666.86 -124.691 686.036 -112.7C698.436 -104.876 708.459 -90.8136 723.109 -90.6601C727.037 -90.6702 730.89 -91.7335 734.267 -93.7391C737.645 -95.7447 740.422 -98.6192 742.311 -102.063C744.113 -105.554 744.945 -109.464 744.721 -113.386C744.496 -117.308 743.222 -121.097 741.032 -124.359C734.615 -133.665 721.959 -136.708 714.748 -145.375C711.668 -149.73 709.095 -154.423 707.078 -159.361L706.925 -159.642H743.41C744.104 -157.486 745.012 -155.405 746.12 -153.429C751.54 -144.097 760.95 -137.142 764.299 -126.89C766.856 -118.989 765.603 -109.759 770.384 -102.958C774.296 -97.41 781.25 -95.0323 786.62 -90.8647C798.227 -81.9416 801.423 -65.8338 801.628 -51.1834C801.304 -44.1875 801.793 -37.1777 803.085 -30.2946C805.335 -21.2691 811.062 -13.4964 813.619 -4.64995Z" fill="#0064C8" fill-opacity="0.03"/>
<path d="M801.551 532.172C812.29 549.022 800.529 571.036 787.336 586.018C782.222 591.797 776.699 597.473 769.617 600.413C753.739 606.984 735.228 598.137 718.481 602.382C699.05 607.291 688.388 627.796 672.203 639.608C659.01 649.273 641.036 654.054 633.366 668.5C628.253 678.19 629.199 689.773 628.611 700.741C628.023 711.71 624.775 724.008 615.008 728.866C599.463 736.843 582.026 720.684 564.563 720.582C546.666 720.582 532.118 737.15 514.22 737.584C500.976 737.917 489.24 729.275 476.252 726.718C426.267 716.874 381.651 776.831 399.855 822.188C403.511 831.265 409.264 840.086 408.548 849.929C407.219 867.341 387.429 875.958 375.31 888.614C359.662 905.054 357.003 929.522 353.961 952.022C350.918 974.521 345.191 999.245 326.45 1012.05C306.379 1025.76 276.337 1021.98 260.204 1040.18C252.891 1048.44 249.977 1059.74 243.815 1068.87C238.318 1076.95 230.34 1083.01 222.389 1088.68C207.952 1098.91 193.037 1108.47 177.645 1117.37C171.107 1120.88 164.796 1124.8 158.751 1129.1H48.8089C51.5702 1103.79 67.2944 1079.68 90.3566 1068.56C108.254 1059.89 129.936 1058.18 144.663 1044.81C149.597 1040.31 153.458 1034.58 158.623 1030.52C173.247 1018.57 194.239 1020.29 212.673 1016.2C252.789 1007.32 280.07 971.249 303.746 937.678C308.041 931.567 312.464 925.227 313.973 917.914C314.97 913.184 314.74 908.224 316.274 903.673C318.831 895.849 326.194 890.736 332.433 885.315C343.368 875.697 352.096 863.829 358.018 850.524C363.94 837.219 366.917 822.791 366.745 808.228C366.54 798.333 364.904 788.413 366.285 778.646C367.665 768.879 373.035 758.806 382.316 755.405C402.923 747.914 404.432 726.795 419.108 710.508C424.477 704.576 429.974 698.491 437.005 694.886C459.172 683.585 488.499 699.386 510.053 686.96C519.052 681.846 524.882 672.489 532.834 665.764C550.936 650.424 577.219 650.219 598.594 639.966C612.375 633.344 625.108 617.364 617.949 603.839C615.827 599.85 612.145 596.603 611.25 592.18C610.355 587.757 612.554 583.206 612.81 578.629C613.372 569.527 605.651 561.294 596.753 559.274C587.856 557.254 578.421 560.476 570.981 565.82C545.413 584.203 538.484 562.777 519.641 547.181C504.3 534.397 477.121 541.837 470.294 560.578C468.275 566.05 467.738 572.058 465.488 577.427C460.067 589.726 446.184 595.683 433.272 599.416C412.566 605.429 391.165 608.721 369.608 609.208C361.527 609.795 353.41 608.77 345.728 606.191C333.072 601.078 324.609 589.419 314.433 580.368C285.976 555.081 241.411 549.201 220.446 517.369C216.713 511.718 213.747 505.224 208.199 501.287C194.929 491.826 176.98 502.207 160.694 502.897C149.776 503.358 139.293 499.292 128.657 496.761C104.572 491.059 79.4135 493.36 54.7661 495.687L0 500.801V470.119C37.4824 474.926 76.0131 463.83 113.777 457.463C156.194 450.304 205.207 451.225 235.224 482.034C245.451 492.517 252.712 505.863 264.167 515.016C271.837 521.178 281.041 525.09 289.453 530.229C303.285 538.692 315.021 550.3 327.447 560.578C339.873 570.857 354.242 580.087 370.324 582.285C396.992 585.967 439.511 556.718 450.377 532.479C453.701 525.065 455.107 516.908 458.303 509.468C469.4 483.491 501.462 470.631 529.126 476.23C536.275 477.358 542.95 480.517 548.353 485.332C561.521 498.397 559.782 516.372 579.316 522.431C598.85 528.491 622.398 519.874 639.451 510.491C662.207 497.937 682.917 480.577 708.331 474.696C721.115 471.756 736.839 472.983 744.433 483.747C747.399 487.966 748.728 493.105 751.413 497.477C762.484 515.093 790.608 514.838 801.551 532.172ZM752.973 559.121C753.765 556.012 753.69 552.746 752.757 549.676C751.824 546.607 750.068 543.851 747.68 541.709C743.282 537.721 737.069 535.88 733.362 531.252C730.805 528.107 729.808 524.067 727.66 520.667C724.982 516.779 720.973 514.005 716.39 512.87C711.807 511.735 706.967 512.316 702.783 514.505C697.899 517.292 694.55 522.175 690.127 525.55C678.417 534.78 649.985 533.732 642.775 546.465C640.218 551.016 641.113 556.692 643.056 561.627C649.679 578.041 656.607 601.998 679.746 597.421C688.899 595.606 696.033 587.68 703.396 580.496C710.76 573.311 717.74 567.354 727.2 567.891C731.138 568.121 734.87 569.885 738.808 569.962C742.009 569.886 745.104 568.795 747.645 566.847C750.186 564.898 752.043 562.193 752.947 559.121H752.973Z" fill="#0064C8" fill-opacity="0.03"/>
<path d="M666.962 247.986C680.002 257.65 690.536 276.468 680.794 289.482C670.567 303.314 647.837 297.434 632.906 306.127C625.568 310.397 620.633 317.914 613.5 322.49C591.358 336.629 563.08 316.738 536.796 317.377C523.118 317.76 509.746 323.897 496.169 322.081C486.709 320.828 478.272 315.817 468.863 313.644C450.454 309.349 430.946 316.482 412.332 313.184C380.015 307.431 361.606 273.911 335.399 254.199C314.152 238.219 287.382 231.188 265.292 216.486C259.053 212.293 253.198 207.512 246.678 203.702C224.946 191.327 198.457 192.146 173.887 187.543C132.978 179.873 93.3992 156.53 52.6697 164.532C34.7722 168.061 17.8463 177.546 0.255615 180.282V162.998L52.4652 148.399C65.5304 144.743 78.8768 141.061 92.4277 141.649C105.979 142.237 119.044 147.121 131.751 151.876C176.418 169.058 221.545 187.671 269.28 191.225C288.993 192.734 310.393 192.171 326.348 203.856C339.975 213.827 345.37 233.054 358.538 242.463C372.677 252.69 398.27 253.406 415.272 257.113C420.894 257.894 426.269 259.93 430.997 263.071C435.139 266.292 437.747 271.048 440.943 275.216C447.48 283.348 456.417 289.208 466.48 291.963C476.544 294.718 487.22 294.225 496.987 290.556C505.732 287.053 513.99 280.866 523.399 281.428C537.717 282.298 549.683 298.712 563.361 294.366C566.608 293.343 569.421 291.17 572.668 290.147C580.492 287.59 588.571 292.141 596.37 294.698C608.259 298.61 625.466 294.212 629.301 280.968C634.057 264.605 616.773 257.625 608.259 247.116C600.23 237.273 598.287 225.691 591.256 215.336C579.725 198.41 556.816 194.217 536.362 192.938C515.908 191.66 493.612 191.251 477.837 178.186C470.448 172.075 465.232 163.714 458.278 157.143C425.96 126.666 369.787 143.643 332.663 119.277C322.64 112.706 314.637 103.451 304.692 96.7776C261.226 67.6302 200.221 96.5986 151.285 78.4455C121.319 67.3746 100.609 40.6306 77.1379 18.9747C56.1467 -0.329021 27.4341 -16.8203 0.434453 -11.5533V-44.9961C22.0137 -43.5643 43.3373 -39.6779 60.8768 -27.5588C74.9136 -17.843 85.2175 -3.7039 98.0525 7.54595C121.958 28.4604 153.356 38.2272 183.756 47.5339C200.682 52.6475 217.863 57.9145 235.556 58.298C252.815 58.656 270.584 54.4629 287.076 59.6276C299.246 63.4628 309.243 72.0024 319.751 79.2381C349.943 99.9827 385.802 110.903 422.432 110.507C443.244 110.201 464.977 106.365 484.255 114.189C501.129 121.041 513.453 135.871 529.331 144.871C545.208 153.871 562.875 156.325 579.852 161.669C596.83 167.012 614.165 176.242 621.426 192.35C625.005 200.327 625.824 209.378 629.838 217.125C637.431 231.597 653.897 238.372 666.962 247.986Z" fill="#0064C8" fill-opacity="0.03"/>
<path d="M572.029 834.997C582.103 843.614 575.148 856.449 566.915 868.236C561.188 876.366 554.873 883.909 553.313 889.073C551.836 895.214 551.047 901.5 550.961 907.815C550.678 917.082 548.347 926.171 544.134 934.431C539.558 942.459 531.606 949.004 522.402 949.771C513.197 950.538 503.277 944.658 501.564 935.479C499.493 924.383 509.234 914.028 508.672 902.752C508.365 896.539 504.965 890.914 503.737 884.855C497.934 856.219 529.152 858.392 543.802 845.583C550.935 839.37 561.265 825.819 572.029 834.997Z" fill="#0064C8" fill-opacity="0.03"/>
<path d="M566.43 229.27C574.867 239.497 574.1 257.829 562.313 263.812C549.964 270.025 535.774 260.258 521.967 259.543C507.061 258.775 492.539 268.798 477.965 265.602C461.857 262.074 453.522 244.611 440.559 234.46C430.485 226.56 417.676 223.211 405.25 220.04C388.324 215.745 343.402 199.765 373.674 179.566C385.205 171.896 395.79 178.902 407.526 175.885C421.128 172.433 424.707 159.956 440.022 169.748C457.92 181.279 471.42 200.021 491.414 207.589C503.865 212.319 517.518 212.165 530.763 213.648C544.007 215.131 557.941 218.966 566.43 229.27Z" fill="#0064C8" fill-opacity="0.03"/>
<path d="M510.819 1021.08C513.376 1034.5 507.215 1048.05 499.57 1059.43C496.832 1062.89 494.783 1066.84 493.536 1071.07C492.991 1075.07 493.19 1079.15 494.124 1083.08C496.454 1094.9 496.454 1107.06 494.124 1118.88C493.28 1122.46 492.072 1125.95 490.519 1129.28H415.298C413.628 1126.6 412.538 1123.59 412.098 1120.46C411.658 1117.33 411.877 1114.15 412.741 1111.1C415.298 1102.62 421.486 1095.76 428.287 1090.24C435.088 1084.72 442.579 1079.84 448.741 1073.49C455.937 1065.99 460.91 1056.63 463.11 1046.47C464.874 1038.26 464.772 1029.7 466.638 1021.51C468.505 1013.33 472.954 1005 480.675 1001.7C493.408 996.228 508.237 1007.66 510.819 1021.08Z" fill="#0064C8" fill-opacity="0.03"/>
<path d="M399.011 679.417C401.773 701.048 391.034 725.695 370.273 732.394C365.16 734.03 359.663 734.618 355.29 737.507C350.177 741.036 347.62 747.223 345.217 753.052C341.637 762.155 327.319 786.112 337.189 795.137C339.438 797.183 342.737 798.001 344.373 800.557C345.341 802.365 345.725 804.429 345.472 806.464C345.085 813.394 342.941 820.111 339.242 825.984C335.543 831.857 330.411 836.692 324.328 840.034C317.348 843.742 309.422 845.327 302.314 848.753C271.249 863.71 281.451 897.332 266.723 922.311C259.281 934.87 247.433 944.211 233.485 948.518C205.821 956.981 181.889 967.899 155.145 980.274C140.955 986.845 126.561 993.467 111.143 996.023C73.8398 1002.16 37.5079 983.751 0.230042 976.822V910.934C28.7637 913.619 57.5788 926.095 86.3426 924.536L89.2062 924.331C101.179 922.864 112.942 920.015 124.26 915.843C145.532 908.888 164.606 901.064 187.003 897.28C198.258 895.289 209.071 891.315 218.937 885.545C228.091 880.252 237.73 875.318 244.658 868.005C259.513 852.102 253.019 826.713 275.979 815.003C281.348 812.242 287.229 810.682 292.419 807.64C295.562 805.786 298.378 803.428 300.754 800.66C305.331 795.365 308.153 788.782 308.834 781.816C309.081 780.289 308.904 778.724 308.322 777.291C307.325 775.297 305.203 774.453 303.797 772.791C297.456 765.3 306.993 747.683 309.089 740.243C310.368 735.743 311.902 731.064 315.021 728.201C317.578 725.644 321.132 725.184 323.97 723.496C327.971 720.749 330.898 716.702 332.254 712.042C336.336 700.918 338.077 689.072 337.367 677.244C336.14 661.034 328.214 644.466 313.691 640.35C297.635 635.799 279.584 632.321 264.473 622.222L262.121 620.586C253.045 613.938 246.065 604.861 238.062 597.063C233.991 593.103 229.585 589.501 224.895 586.299C215.784 580.314 205.758 575.858 195.21 573.106C179.639 568.862 162.79 567.635 145.123 566.305C136.182 566.025 127.28 565.007 118.507 563.263C115.362 562.495 112.268 561.498 109.226 560.425C103.027 557.996 96.6722 555.988 90.2034 554.416C72.3059 550.683 53.6924 555.797 35.6926 559.862C24.1604 562.833 12.2585 564.116 0.358005 563.672V534.345C16.2868 538.564 34.4143 535.752 50.8545 531.61C72.5104 526.138 94.959 518.826 116.692 523.939C128.376 526.701 138.986 532.965 150.62 535.879C161.154 538.436 172.122 538.283 182.912 539.331C215.463 542.619 245.872 557.074 268.973 580.24C282.218 593.586 292.854 609.668 308.092 620.662C324.835 632.698 344.652 639.73 365.236 640.938C383.645 642.216 396.659 661.034 399.011 679.417Z" fill="#0064C8" fill-opacity="0.03"/>
<path d="M308.885 143.695C317.399 146.712 329.339 155.251 326.245 165.939C325.76 167.567 324.882 169.051 323.689 170.26C321.457 172.254 318.621 173.443 315.635 173.635C300.294 175.424 285.414 166.578 270.073 166.629C253.607 166.629 236.605 171.743 220.497 166.041C205.156 160.646 193.881 146.226 178.054 142.544C169.873 140.652 161.231 141.828 152.998 140.166C138.143 137.149 126.535 125.363 112.089 120.658C94.9843 115.059 76.2943 120.096 59.1127 125.132C40.576 130.502 20.0193 139.041 0.127563 137.482V29.6621C30.3232 27.4121 62.2831 32.7302 80.1294 56.1503C85.064 62.6701 88.7458 70.3918 95.4701 75.1474C102.885 80.4399 112.012 80.6955 120.603 82.383C135.944 85.3744 147.117 99.5646 161.052 106.468C177.6 114.693 195.856 118.898 214.335 118.74C215.315 118.865 216.311 118.759 217.244 118.431C218.176 118.102 219.019 117.561 219.704 116.848C220.778 115.238 220.19 113.09 220.216 111.147C220.216 103.016 230.826 99.7436 238.957 99.7692C247.413 99.7717 255.84 100.767 264.065 102.735C271.045 104.422 278.561 107.388 281.604 113.883C283.496 117.871 283.317 122.524 284.34 126.82C287.127 138.172 299.706 140.396 308.885 143.695Z" fill="#0064C8" fill-opacity="0.03"/>
<path d="M276.056 705.062C276.955 708.26 277.529 711.541 277.769 714.854C276.664 716.14 275.696 717.536 274.88 719.022C273.826 721.763 273.213 724.654 273.064 727.587C272.502 733.391 267.797 744.564 270.507 750.598C271.24 751.739 271.865 752.946 272.374 754.203C272.59 755.249 272.59 756.328 272.374 757.374C271.509 762.143 269.411 766.603 266.289 770.311C264.673 772.261 262.797 773.982 260.715 775.424C257.289 777.777 253.454 779.362 249.797 781.433C234.968 789.845 234.457 804.955 222.772 813.878C211.625 822.393 197.767 827.072 184.83 833.259C170.869 839.907 156.015 847.449 140.674 846.222C124.055 844.918 109.302 850.031 93.5269 851.591C84.8583 852.635 76.125 853.046 67.3967 852.818H65.2999C43.823 851.489 21.3235 844.1 0.35791 845.557V780.487C13.5765 774.53 29.9143 776.422 44.13 780.794C60.7491 785.907 76.8056 794.012 94.1917 795.086C113.726 796.313 132.544 788.541 150.594 780.896L200.759 759.675C212.162 754.842 224.051 749.652 231.721 739.911C239.391 730.17 240.874 714.343 231.593 706.238C228.039 703.068 223.335 701.38 219.858 698.133C205.079 684.173 222.824 656.151 210.602 639.89C202.011 628.435 184.139 630.123 172.097 622.401C163.813 617.109 158.776 607.623 150.262 602.714C143.778 599.23 136.276 598.135 129.066 599.62L128.248 592.691C136.506 591.745 144.484 590.416 152.282 589.853C161.896 588.936 171.596 589.944 180.816 592.819C185.622 594.492 190.128 596.927 194.162 600.029C202.088 606.191 208.02 614.935 216.176 620.969C216.866 621.481 217.557 621.992 218.272 622.452C231.875 631.375 249.695 632.373 262.147 640.35C272.706 647.023 275.544 661.545 275.646 675.557C275.646 686.269 274.573 697.289 276.056 705.062Z" fill="#0064C8" fill-opacity="0.03"/>
<path d="M197.281 704.141C199.557 714.087 207.048 723.982 203.239 733.468C200.426 740.473 192.296 743.848 184.753 744.462C171.228 745.536 157.779 743.746 144.433 747.019C130.396 750.445 118.865 760.365 104.623 763.536C87.5952 767.345 70.1835 760.979 52.8229 759.163C39.7067 757.885 26.4882 759.368 13.3208 758.601C8.9328 758.36 4.57185 757.762 0.28125 756.811V718.434C8.10293 726.769 17.3611 733.628 27.6131 738.684C40.1413 745.152 53.5902 749.857 66.144 742.57C79.2603 734.9 92.6833 726.948 108.28 726.437C114.493 726.232 120.68 727.229 126.893 727.459C138.143 727.763 149.333 725.716 159.748 721.451C164.464 719.835 168.706 717.077 172.097 713.423C178.514 705.752 177.364 694.375 175.856 684.429C175.589 680.96 174.568 677.592 172.864 674.56C168.927 668.628 161.41 667.656 156.475 663.028C151.54 658.401 149.035 650.807 143.205 646.103C135.535 639.966 124.03 642.574 115.669 647.688C107.308 652.801 100.175 660.165 90.9958 663.591C69.3143 671.67 45.2549 655.486 22.4995 659.653C13.8995 661.538 6.11986 666.103 0.28125 672.693V640.222C15.173 634.727 31.3189 633.575 46.8402 636.898C57.6554 639.25 68.4961 643.801 79.388 641.807C86.7004 640.478 93.1179 636.335 99.5098 632.551C107.43 627.348 116.274 623.712 125.564 621.839C134.896 620.407 145.2 622.452 151.873 629.151C158.137 635.441 160.668 645.105 167.929 650.245C174.398 654.796 183.424 654.795 189.509 659.883C195.594 664.971 197.026 673.281 196.949 680.977C196.872 688.673 195.543 696.624 197.281 704.141Z" fill="#0064C8" fill-opacity="0.03"/>
<path d="M128.172 592.538L128.99 599.467C122.137 600.747 115.506 603.012 109.302 606.191C96.5186 612.481 83.7345 620.637 69.4932 620.637C62.4365 620.637 55.5845 618.591 48.6301 617.262C32.6183 614.667 16.293 614.667 0.28125 617.262V591.311C7.03116 590.697 13.8322 589.521 20.4543 588.293C34.7723 585.737 49.3716 582.822 63.664 585.123C68.8482 586.078 73.9709 587.342 79.0047 588.907C81.4336 589.623 83.8879 590.313 86.3935 590.901C93.2958 592.405 100.324 593.26 107.385 593.458C114.327 593.717 121.279 593.409 128.172 592.538Z" fill="#0064C8" fill-opacity="0.03"/>
</svg>
